  0
SECTION
  2
HEADER
  9
$ACADVER
  1
AC1009
  9
$DWGCODEPAGE
  3
ansi_1252
  9
$INSBASE
 10
0.0
 20
0.0
 30
0.0
  9
$EXTMIN
 10
14.999999999946
 20
108.0
 30
-0.0000000000002558
  9
$EXTMAX
 10
503.0000000000001
 20
596.0000000003581
 30
0.0000000000006454
  9
$LIMMIN
 10
0.0
 20
0.0
  9
$LIMMAX
 10
12.0
 20
9.0
  9
$ORTHOMODE
 70
     0
  9
$REGENMODE
 70
     1
  9
$FILLMODE
 70
     1
  9
$QTEXTMODE
 70
     0
  9
$MIRRTEXT
 70
     1
  9
$DRAGMODE
 70
     2
  9
$LTSCALE
 40
1.0
  9
$OSMODE
 70
    37
  9
$ATTMODE
 70
     1
  9
$TEXTSIZE
 40
0.2
  9
$TRACEWID
 40
0.05
  9
$TEXTSTYLE
  7
STANDARD
  9
$CLAYER
  8
DEFAULT
  9
$CELTYPE
  6
BYLAYER
  9
$CECOLOR
 62
   256
  9
$DIMSCALE
 40
1.0
  9
$DIMASZ
 40
0.18
  9
$DIMEXO
 40
0.0625
  9
$DIMDLI
 40
0.38
  9
$DIMRND
 40
0.0
  9
$DIMDLE
 40
0.0
  9
$DIMEXE
 40
0.18
  9
$DIMTP
 40
0.0
  9
$DIMTM
 40
0.0
  9
$DIMTXT
 40
0.18
  9
$DIMCEN
 40
0.09
  9
$DIMTSZ
 40
0.0
  9
$DIMTOL
 70
     0
  9
$DIMLIM
 70
     0
  9
$DIMTIH
 70
     1
  9
$DIMTOH
 70
     1
  9
$DIMSE1
 70
     0
  9
$DIMSE2
 70
     0
  9
$DIMTAD
 70
     0
  9
$DIMZIN
 70
     0
  9
$DIMBLK
  1

  9
$DIMASO
 70
     1
  9
$DIMSHO
 70
     1
  9
$DIMPOST
  1

  9
$DIMAPOST
  1

  9
$DIMALT
 70
     0
  9
$DIMALTD
 70
     2
  9
$DIMALTF
 40
25.4
  9
$DIMLFAC
 40
1.0
  9
$DIMTOFL
 70
     0
  9
$DIMTVP
 40
0.0
  9
$DIMTIX
 70
     0
  9
$DIMSOXD
 70
     0
  9
$DIMSAH
 70
     0
  9
$DIMBLK1
  1

  9
$DIMBLK2
  1

  9
$DIMSTYLE
  2
STANDARD
  9
$DIMCLRD
 70
     0
  9
$DIMCLRE
 70
     0
  9
$DIMCLRT
 70
     0
  9
$DIMTFAC
 40
1.0
  9
$DIMGAP
 40
0.09
  9
$LUNITS
 70
     2
  9
$LUPREC
 70
     3
  9
$SKETCHINC
 40
0.1
  9
$FILLETRAD
 40
0.5
  9
$AUNITS
 70
     0
  9
$AUPREC
 70
     0
  9
$MENU
  1
.
  9
$ELEVATION
 40
0.0
  9
$PELEVATION
 40
0.0
  9
$THICKNESS
 40
0.0
  9
$LIMCHECK
 70
     0
  9
$CHAMFERA
 40
0.5
  9
$CHAMFERB
 40
0.5
  9
$SKPOLY
 70
     0
  9
$TDCREATE
 40
2456956.842458217
  9
$TDUPDATE
 40
2456956.842458762
  9
$TDINDWG
 40
0.0000000116
  9
$TDUSRTIMER
 40
0.0000000116
  9
$USRTIMER
 70
     1
  9
$ANGBASE
 50
0.0
  9
$ANGDIR
 70
     0
  9
$PDMODE
 70
     0
  9
$PDSIZE
 40
0.0
  9
$PLINEWID
 40
0.0
  9
$COORDS
 70
     1
  9
$SPLFRAME
 70
     0
  9
$SPLINETYPE
 70
     6
  9
$SPLINESEGS
 70
     8
  9
$ATTDIA
 70
     0
  9
$ATTREQ
 70
     1
  9
$HANDLING
 70
     1
  9
$HANDSEED
  5
289
  9
$SURFTAB1
 70
     6
  9
$SURFTAB2
 70
     6
  9
$SURFTYPE
 70
     6
  9
$SURFU
 70
     6
  9
$SURFV
 70
     6
  9
$UCSNAME
  2

  9
$UCSORG
 10
0.0
 20
0.0
 30
0.0
  9
$UCSXDIR
 10
1.0
 20
0.0
 30
0.0
  9
$UCSYDIR
 10
0.0
 20
1.0
 30
0.0
  9
$PUCSNAME
  2

  9
$PUCSORG
 10
0.0
 20
0.0
 30
0.0
  9
$PUCSXDIR
 10
1.0
 20
0.0
 30
0.0
  9
$PUCSYDIR
 10
0.0
 20
1.0
 30
0.0
  9
$USERI1
 70
     0
  9
$USERI2
 70
     0
  9
$USERI3
 70
     0
  9
$USERI4
 70
     0
  9
$USERI5
 70
     0
  9
$USERR1
 40
0.0
  9
$USERR2
 40
0.0
  9
$USERR3
 40
0.0
  9
$USERR4
 40
0.0
  9
$USERR5
 40
0.0
  9
$WORLDVIEW
 70
     1
  9
$SHADEDGE
 70
     3
  9
$SHADEDIF
 70
    70
  9
$TILEMODE
 70
     1
  9
$MAXACTVP
 70
    64
  9
$PLIMCHECK
 70
     0
  9
$PEXTMIN
 10
1.000000000000000E+20
 20
1.000000000000000E+20
 30
1.000000000000000E+20
  9
$PEXTMAX
 10
-1.000000000000000E+20
 20
-1.000000000000000E+20
 30
-1.000000000000000E+20
  9
$PLIMMIN
 10
0.0
 20
0.0
  9
$PLIMMAX
 10
12.0
 20
9.0
  9
$UNITMODE
 70
     0
  9
$VISRETAIN
 70
     1
  9
$PLINEGEN
 70
     0
  9
$PSLTSCALE
 70
     1
  0
ENDSEC
  0
SECTION
  2
TABLES
  0
TABLE
  2
VPORT
 70
     1
  0
VPORT
  2
*ACTIVE
 70
     0
 10
0.0
 20
0.0
 11
1.0
 21
1.0
 12
258.9999999999731
 22
352.0000000001791
 13
0.0
 23
0.0
 14
0.5
 24
0.5
 15
0.5
 25
0.5
 16
0.0
 26
0.0
 36
1.0
 17
0.0
 27
0.0
 37
0.0
 40
497.7600000003653
 41
0.999999999999377
 42
50.0
 43
0.0
 44
0.0
 50
0.0
 51
0.0
 71
     0
 72
   100
 73
     1
 74
     3
 75
     0
 76
     0
 77
     0
 78
     0
  0
ENDTAB
  0
TABLE
  2
LTYPE
 70
     1
  0
LTYPE
  2
CONTINUOUS
 70
     0
  3
Solid line
 72
    65
 73
     0
 40
0.0
  0
ENDTAB
  0
TABLE
  2
LAYER
 70
     2
  0
LAYER
  2
0
 70
     0
 62
     7
  6
CONTINUOUS
  0
LAYER
  2
DEFAULT
 70
     0
 62
     7
  6
CONTINUOUS
  0
ENDTAB
  0
TABLE
  2
STYLE
 70
     1
  0
STYLE
  2
STANDARD
 70
     0
 40
0.0
 41
1.0
 50
0.0
 71
     0
 42
0.2
  3
txt
  4

  0
ENDTAB
  0
TABLE
  2
VIEW
 70
     0
  0
ENDTAB
  0
TABLE
  2
UCS
 70
     0
  0
ENDTAB
  0
TABLE
  2
APPID
 70
     1
  0
APPID
  2
ACAD
 70
     0
  0
ENDTAB
  0
TABLE
  2
DIMSTYLE
 70
     1
  0
DIMSTYLE
  2
STANDARD
 70
     0
  3

  4

  5

  6

  7

 40
1.0
 41
0.18
 42
0.0625
 43
0.38
 44
0.18
 45
0.0
 46
0.0
 47
0.0
 48
0.0
140
0.18
141
0.09
142
0.0
143
25.4
144
1.0
145
0.0
146
1.0
147
0.09
 71
     0
 72
     0
 73
     1
 74
     1
 75
     0
 76
     0
 77
     0
 78
     0
170
     0
171
     2
172
     0
173
     0
174
     0
175
     0
176
     0
177
     0
178
     0
  0
ENDTAB
  0
ENDSEC
  0
SECTION
  2
BLOCKS
  0
BLOCK
  8
0
  2
$MODEL_SPACE
 70
     0
 10
0.0
 20
0.0
 30
0.0
  3
$MODEL_SPACE
  1

  0
ENDBLK
  5
21
  8
0
  0
BLOCK
 67
     1
  8
0
  2
$PAPER_SPACE
 70
     0
 10
0.0
 20
0.0
 30
0.0
  3
$PAPER_SPACE
  1

  0
ENDBLK
  5
1D
 67
     1
  8
0
  0
ENDSEC
  0
SECTION
  2
ENTITIES
  0
LINE
  5
41
  8
DEFAULT
 10
355.0
 20
400.0
 30
0.0
 11
411.0
 21
400.0
 31
0.0
  0
LINE
  5
42
  8
DEFAULT
 10
355.000000000004
 20
470.9999999999999
 30
-0.0000000000000309
 11
355.0000000000034
 21
460.0000000000154
 31
-0.0000000000000261
  0
LINE
  5
43
  8
DEFAULT
 10
488.0
 20
460.0
 30
0.0
 11
488.000000000011
 21
596.0
 31
-0.0000000000000853
  0
LINE
  5
44
  8
DEFAULT
 10
488.000000000011
 20
596.0
 30
-0.0000000000000853
 11
355.000000000011
 21
596.0
 31
-0.0000000000000853
  0
LINE
  5
45
  8
DEFAULT
 10
355.000000000011
 20
596.0
 30
-0.0000000000000853
 11
355.0000000000107
 21
590.0
 31
-0.0000000000000827
  0
LINE
  5
46
  8
DEFAULT
 10
391.0000000000001
 20
172.0
 30
-0.0000000000000568
 11
503.0000000000001
 21
172.0
 31
-0.0000000000000568
  0
LINE
  5
47
  8
DEFAULT
 10
503.0000000000001
 20
172.0
 30
-0.0000000000000568
 11
503.0000000000001
 21
372.0
 31
-0.0000000000000568
  0
LINE
  5
48
  8
DEFAULT
 10
503.0000000000001
 20
372.0
 30
-0.0000000000000568
 11
373.0000000000001
 21
372.0
 31
-0.0000000000000568
  0
LINE
  5
49
  8
DEFAULT
 10
373.0000000000001
 20
372.0
 30
-0.0000000000000568
 11
373.0000000000001
 21
355.9999999999999
 31
-0.0000000000000568
  0
LINE
  5
4A
  8
DEFAULT
 10
185.0000000000185
 20
466.0
 30
-0.0000000000000853
 11
350.0
 21
466.0
 31
-0.0000000000000853
  0
LINE
  5
4B
  8
DEFAULT
 10
350.0
 20
466.0
 30
-0.0000000000000853
 11
350.0
 21
471.0
 31
-0.0000000000000853
  0
LINE
  5
4C
  8
DEFAULT
 10
350.0
 20
471.0
 30
-0.0000000000000853
 11
355.000000000011
 21
471.0
 31
-0.0000000000000853
  0
LINE
  5
4D
  8
DEFAULT
 10
355.000000000011
 20
471.0
 30
-0.0000000000000853
 11
355.000000000011
 21
590.0
 31
-0.0000000000000853
  0
LINE
  5
4E
  8
DEFAULT
 10
355.000000000011
 20
590.0
 30
-0.0000000000000853
 11
350.0
 21
590.0
 31
-0.0000000000000853
  0
LINE
  5
4F
  8
DEFAULT
 10
350.0
 20
590.0
 30
-0.0000000000000853
 11
350.0
 21
596.0
 31
-0.0000000000000853
  0
LINE
  5
50
  8
DEFAULT
 10
350.0
 20
596.0
 30
-0.0000000000000853
 11
185.0000000000185
 21
596.0
 31
-0.0000000000000853
  0
LINE
  5
51
  8
DEFAULT
 10
349.9999999999999
 20
466.0000000000155
 30
-0.0000000000000711
 11
350.0
 21
460.0000000000155
 31
-0.0000000000000711
  0
LINE
  5
52
  8
DEFAULT
 10
350.0
 20
460.0000000000155
 30
-0.0000000000000711
 11
355.0000000000454
 21
460.0000000000155
 31
-0.0000000000000711
  0
LINE
  5
53
  8
DEFAULT
 10
355.0000000000454
 20
460.0000000000155
 30
-0.0000000000000711
 11
355.0000000000454
 21
361.0
 31
-0.0000000000000711
  0
LINE
  5
54
  8
DEFAULT
 10
355.0000000000454
 20
361.0
 30
-0.0000000000000711
 11
350.0
 21
361.0
 31
-0.0000000000000711
  0
LINE
  5
55
  8
DEFAULT
 10
350.0
 20
361.0
 30
-0.0000000000000711
 11
350.0
 21
356.0000000000452
 31
-0.0000000000000711
  0
LINE
  5
56
  8
DEFAULT
 10
350.0
 20
356.0000000000452
 30
-0.0000000000000711
 11
185.0000000000173
 21
356.0000000000452
 31
-0.0000000000000711
  0
LINE
  5
57
  8
DEFAULT
 10
185.0000000000173
 20
356.0000000000452
 30
-0.0000000000000711
 11
185.0000000000173
 21
466.0000000000157
 31
-0.0000000000000711
  0
LINE
  5
58
  8
DEFAULT
 10
185.0000000000173
 20
466.0000000000157
 30
-0.0000000000000711
 11
185.0000000000185
 21
466.0000000000157
 31
-0.0000000000000711
  0
LINE
  5
59
  8
DEFAULT
 10
19.99999999999034
 20
465.999999999849
 30
-0.0000000000001421
 11
19.99999999999136
 21
459.999999999849
 31
-0.0000000000001421
  0
LINE
  5
5A
  8
DEFAULT
 10
19.99999999999136
 20
459.999999999849
 30
-0.0000000000001421
 11
14.999999999946
 21
459.9999999998479
 31
-0.0000000000001421
  0
LINE
  5
5B
  8
DEFAULT
 10
14.999999999946
 20
459.9999999998479
 30
-0.0000000000001421
 11
14.99999999996646
 21
360.9999999998323
 31
-0.0000000000001421
  0
LINE
  5
5C
  8
DEFAULT
 10
14.99999999996646
 20
360.9999999998323
 30
-0.0000000000001421
 11
20.00000000001182
 21
360.9999999998333
 31
-0.0000000000001421
  0
LINE
  5
5D
  8
DEFAULT
 10
20.00000000001182
 20
360.9999999998333
 30
-0.0000000000001421
 11
20.00000000001285
 21
355.9999999998786
 31
-0.0000000000001421
  0
LINE
  5
5E
  8
DEFAULT
 10
20.00000000001285
 20
355.9999999998786
 30
-0.0000000000001421
 11
184.9999999999956
 21
355.9999999999126
 31
-0.0000000000001421
  0
LINE
  5
5F
  8
DEFAULT
 10
373.0000000000001
 20
356.0
 30
-0.0000000000000568
 11
350.0000000000001
 21
356.0
 31
-0.0000000000000532
  0
LINE
  5
60
  8
DEFAULT
 10
20.00000000001287
 20
355.9999999999999
 30
-0.0000000000000008
 11
15.0
 21
356.0
 31
0.0
  0
LINE
  5
61
  8
DEFAULT
 10
15.0
 20
356.0
 30
0.0
 11
15.0
 21
108.0
 31
0.0
  0
LINE
  5
62
  8
DEFAULT
 10
15.0
 20
108.0
 30
0.0
 11
391.0000000000001
 21
108.0
 31
0.0
  0
LINE
  5
63
  8
DEFAULT
 10
391.0000000000001
 20
108.0
 30
0.0
 11
391.0000000000001
 21
172.0
 31
0.0
  0
CIRCLE
  5
64
  8
DEFAULT
 10
484.9999999999999
 20
448.4999999999999
 30
0.0000000000000124
 40
1.6
  0
CIRCLE
  5
65
  8
DEFAULT
 10
484.9999999999999
 20
411.4999999999999
 30
0.0000000000000124
 40
1.6
  0
LINE
  5
66
  8
DEFAULT
 10
472.9999999999994
 20
453.9999999999997
 30
0.0000000000000124
 11
472.9999999999994
 21
405.9999999999998
 31
0.0000000000000124
  0
LINE
  5
67
  8
DEFAULT
 10
495.9999999999994
 20
440.4999999999998
 30
0.0000000000000124
 11
495.9999999999994
 21
453.9999999999998
 31
0.0000000000000124
  0
ARC
  5
68
  8
DEFAULT
 10
473.9999999999994
 20
453.9999999999997
 30
0.0000000000000124
 40
1.0
 50
90.0
 51
180.0
  0
LINE
  5
69
  8
DEFAULT
 10
473.9999999999994
 20
454.9999999999998
 30
0.0000000000000124
 11
494.9999999999994
 21
454.9999999999998
 31
0.0000000000000124
  0
ARC
  5
6A
  8
DEFAULT
 10
494.9999999999994
 20
453.9999999999998
 30
0.0000000000000124
 40
1.0
 50
0.0
 51
89.99999999999675
  0
ARC
  5
6B
  8
DEFAULT
 10
494.9999999999994
 20
420.4999999999998
 30
0.0000000000000124
 40
1.0
 50
0.0000000000065138
 51
90.0
  0
LINE
  5
6C
  8
DEFAULT
 10
495.9999999999994
 20
420.4999999999999
 30
0.0000000000000124
 11
495.9999999999994
 21
405.9999999999998
 31
0.0000000000000124
  0
LINE
  5
6D
  8
DEFAULT
 10
494.9999999999994
 20
428.4999999999998
 30
0.0000000000000124
 11
492.9999999999994
 21
428.4999999999998
 31
0.0000000000000124
  0
ARC
  5
6E
  8
DEFAULT
 10
492.9999999999994
 20
424.9999999999998
 30
0.0000000000000124
 40
3.5
 50
90.0
 51
270.0
  0
LINE
  5
6F
  8
DEFAULT
 10
492.9999999999994
 20
421.4999999999998
 30
0.0000000000000124
 11
494.9999999999994
 21
421.4999999999998
 31
0.0000000000000124
  0
ARC
  5
70
  8
DEFAULT
 10
494.9999999999994
 20
429.4999999999998
 30
0.0000000000000124
 40
1.0
 50
270.0
 51
0.0
  0
LINE
  5
71
  8
DEFAULT
 10
495.9999999999994
 20
429.4999999999998
 30
0.0000000000000124
 11
495.9999999999994
 21
430.4999999999998
 31
0.0000000000000124
  0
ARC
  5
72
  8
DEFAULT
 10
494.9999999999994
 20
430.4999999999998
 30
0.0000000000000124
 40
1.0
 50
0.0
 51
90.0
  0
LINE
  5
73
  8
DEFAULT
 10
494.9999999999994
 20
438.4999999999998
 30
0.0000000000000124
 11
492.9999999999994
 21
438.4999999999998
 31
0.0000000000000124
  0
ARC
  5
74
  8
DEFAULT
 10
492.9999999999994
 20
434.9999999999998
 30
0.0000000000000124
 40
3.5
 50
90.0
 51
270.0
  0
LINE
  5
75
  8
DEFAULT
 10
492.9999999999994
 20
431.4999999999998
 30
0.0000000000000124
 11
494.9999999999994
 21
431.4999999999998
 31
0.0000000000000124
  0
ARC
  5
76
  8
DEFAULT
 10
494.9999999999994
 20
439.4999999999998
 30
0.0000000000000124
 40
1.0
 50
270.0000000000032
 51
0.0
  0
LINE
  5
77
  8
DEFAULT
 10
495.9999999999994
 20
439.4999999999998
 30
0.0000000000000124
 11
495.9999999999994
 21
440.4999999999998
 31
0.0000000000000124
  0
ARC
  5
78
  8
DEFAULT
 10
473.9999999999994
 20
405.9999999999998
 30
0.0000000000000124
 40
1.0
 50
180.0
 51
270.0
  0
LINE
  5
79
  8
DEFAULT
 10
473.9999999999994
 20
404.9999999999998
 30
0.0000000000000124
 11
494.9999999999994
 21
404.9999999999998
 31
0.0000000000000124
  0
ARC
  5
7A
  8
DEFAULT
 10
494.9999999999994
 20
405.9999999999998
 30
0.0000000000000124
 40
1.0
 50
270.0000000000032
 51
0.0
  0
CIRCLE
  5
7B
  8
DEFAULT
 10
455.999999999993
 20
448.4999999998364
 30
-0.0000000000000142
 40
1.6
  0
CIRCLE
  5
7C
  8
DEFAULT
 10
456.0000000000006
 20
411.4999999998362
 30
-0.0000000000000142
 40
1.6
  0
LINE
  5
7D
  8
DEFAULT
 10
467.9999999999923
 20
453.9999999998387
 30
-0.0000000000000142
 11
468.0000000000022
 21
405.9999999998385
 31
-0.0000000000000142
  0
LINE
  5
7E
  8
DEFAULT
 10
444.999999999995
 20
440.4999999998339
 30
-0.0000000000000142
 11
444.9999999999923
 21
453.9999999998339
 31
-0.0000000000000142
  0
ARC
  5
7F
  8
DEFAULT
 10
466.9999999999923
 20
453.9999999998385
 30
-0.0000000000000142
 40
1.0
 50
0.0000000000130276
 51
90.00000000001303
  0
LINE
  5
80
  8
DEFAULT
 10
466.999999999992
 20
454.9999999998385
 30
-0.0000000000000142
 11
445.999999999992
 21
454.9999999998341
 31
-0.0000000000000142
  0
ARC
  5
81
  8
DEFAULT
 10
445.9999999999923
 20
453.9999999998341
 30
-0.0000000000000142
 40
1.0
 50
90.00000000001629
 51
180.000000000013
  0
ARC
  5
82
  8
DEFAULT
 10
445.9999999999992
 20
420.4999999998344
 30
-0.0000000000000142
 40
1.0
 50
90.00000000001303
 51
180.0000000000065
  0
LINE
  5
83
  8
DEFAULT
 10
444.9999999999992
 20
420.4999999998341
 30
-0.0000000000000142
 11
445.0000000000022
 21
405.9999999998337
 31
-0.0000000000000142
  0
LINE
  5
84
  8
DEFAULT
 10
445.9999999999975
 20
428.4999999998344
 30
-0.0000000000000142
 11
447.9999999999975
 21
428.4999999998346
 31
-0.0000000000000142
  0
ARC
  5
85
  8
DEFAULT
 10
447.9999999999982
 20
424.9999999998346
 30
-0.0000000000000142
 40
3.5
 50
270.0000000000121
 51
90.0000000000121
  0
LINE
  5
86
  8
DEFAULT
 10
447.999999999999
 20
421.4999999998346
 30
-0.0000000000000142
 11
445.999999999999
 21
421.4999999998344
 31
-0.0000000000000142
  0
ARC
  5
87
  8
DEFAULT
 10
445.9999999999973
 20
429.4999999998344
 30
-0.0000000000000142
 40
1.0
 50
180.000000000013
 51
270.000000000013
  0
LINE
  5
88
  8
DEFAULT
 10
444.9999999999973
 20
429.4999999998339
 30
-0.0000000000000142
 11
444.999999999997
 21
430.4999999998339
 31
-0.0000000000000142
  0
ARC
  5
89
  8
DEFAULT
 10
445.999999999997
 20
430.4999999998344
 30
-0.0000000000000142
 40
1.0
 50
90.00000000001303
 51
180.000000000013
  0
LINE
  5
8A
  8
DEFAULT
 10
445.9999999999955
 20
438.4999999998341
 30
-0.0000000000000142
 11
447.9999999999955
 21
438.4999999998346
 31
-0.0000000000000142
  0
ARC
  5
8B
  8
DEFAULT
 10
447.9999999999961
 20
434.9999999998346
 30
-0.0000000000000142
 40
3.5
 50
270.0000000000121
 51
90.0000000000121
  0
LINE
  5
8C
  8
DEFAULT
 10
447.9999999999969
 20
431.4999999998346
 30
-0.0000000000000142
 11
445.9999999999969
 21
431.4999999998344
 31
-0.0000000000000142
  0
ARC
  5
8D
  8
DEFAULT
 10
445.9999999999952
 20
439.4999999998341
 30
-0.0000000000000142
 40
1.0
 50
180.000000000013
 51
270.0000000000098
  0
LINE
  5
8E
  8
DEFAULT
 10
444.9999999999952
 20
439.4999999998339
 30
-0.0000000000000142
 11
444.999999999995
 21
440.4999999998339
 31
-0.0000000000000142
  0
ARC
  5
8F
  8
DEFAULT
 10
467.0000000000022
 20
405.9999999998382
 30
-0.0000000000000142
 40
1.0
 50
270.000000000013
 51
0.0000000000130276
  0
LINE
  5
90
  8
DEFAULT
 10
467.0000000000024
 20
404.9999999998382
 30
-0.0000000000000142
 11
446.0000000000024
 21
404.9999999998339
 31
-0.0000000000000142
  0
ARC
  5
91
  8
DEFAULT
 10
446.0000000000022
 20
405.9999999998339
 30
-0.0000000000000142
 40
1.0
 50
180.000000000013
 51
270.0000000000098
  0
CIRCLE
  5
92
  8
DEFAULT
 10
429.0
 20
448.4999999999999
 30
0.0
 40
1.6
  0
CIRCLE
  5
93
  8
DEFAULT
 10
429.0
 20
411.4999999999999
 30
0.0
 40
1.6
  0
LINE
  5
94
  8
DEFAULT
 10
416.9999999999995
 20
453.9999999999997
 30
0.0
 11
416.9999999999995
 21
405.9999999999994
 31
0.0
  0
LINE
  5
95
  8
DEFAULT
 10
439.9999999999995
 20
440.4999999999999
 30
0.0
 11
439.9999999999995
 21
453.9999999999999
 31
0.0
  0
ARC
  5
96
  8
DEFAULT
 10
417.9999999999995
 20
453.9999999999997
 30
0.0
 40
1.0
 50
90.0
 51
180.0
  0
LINE
  5
97
  8
DEFAULT
 10
417.9999999999995
 20
454.9999999999999
 30
0.0
 11
438.9999999999995
 21
454.9999999999999
 31
0.0
  0
ARC
  5
98
  8
DEFAULT
 10
438.9999999999995
 20
453.9999999999999
 30
0.0
 40
1.0
 50
0.0
 51
89.99999999999675
  0
ARC
  5
99
  8
DEFAULT
 10
438.9999999999995
 20
420.4999999999999
 30
0.0
 40
1.0
 50
0.0000000000065138
 51
90.0
  0
LINE
  5
9A
  8
DEFAULT
 10
439.9999999999995
 20
420.4999999999999
 30
0.0
 11
439.9999999999995
 21
405.9999999999994
 31
0.0
  0
LINE
  5
9B
  8
DEFAULT
 10
438.9999999999995
 20
428.4999999999999
 30
0.0
 11
436.9999999999995
 21
428.4999999999999
 31
0.0
  0
ARC
  5
9C
  8
DEFAULT
 10
436.9999999999995
 20
424.9999999999999
 30
0.0
 40
3.5
 50
90.0
 51
270.0
  0
LINE
  5
9D
  8
DEFAULT
 10
436.9999999999995
 20
421.4999999999999
 30
0.0
 11
438.9999999999995
 21
421.4999999999999
 31
0.0
  0
ARC
  5
9E
  8
DEFAULT
 10
438.9999999999995
 20
429.4999999999999
 30
0.0
 40
1.0
 50
270.0
 51
0.0
  0
LINE
  5
9F
  8
DEFAULT
 10
439.9999999999995
 20
429.4999999999999
 30
0.0
 11
439.9999999999995
 21
430.4999999999999
 31
0.0
  0
ARC
  5
A0
  8
DEFAULT
 10
438.9999999999995
 20
430.4999999999999
 30
0.0
 40
1.0
 50
0.0
 51
90.0
  0
LINE
  5
A1
  8
DEFAULT
 10
438.9999999999995
 20
438.4999999999999
 30
0.0
 11
436.9999999999995
 21
438.4999999999999
 31
0.0
  0
ARC
  5
A2
  8
DEFAULT
 10
436.9999999999995
 20
434.9999999999999
 30
0.0
 40
3.5
 50
90.0
 51
270.0
  0
LINE
  5
A3
  8
DEFAULT
 10
436.9999999999995
 20
431.4999999999999
 30
0.0
 11
438.9999999999995
 21
431.4999999999999
 31
0.0
  0
ARC
  5
A4
  8
DEFAULT
 10
438.9999999999995
 20
439.4999999999999
 30
0.0
 40
1.0
 50
270.0000000000032
 51
0.0
  0
LINE
  5
A5
  8
DEFAULT
 10
439.9999999999995
 20
439.4999999999999
 30
0.0
 11
439.9999999999995
 21
440.4999999999999
 31
0.0
  0
ARC
  5
A6
  8
DEFAULT
 10
417.9999999999995
 20
405.9999999999994
 30
0.0
 40
1.0
 50
180.0
 51
270.0
  0
LINE
  5
A7
  8
DEFAULT
 10
417.9999999999995
 20
404.9999999999994
 30
0.0
 11
438.9999999999995
 21
404.9999999999994
 31
0.0
  0
ARC
  5
A8
  8
DEFAULT
 10
438.9999999999995
 20
405.9999999999994
 30
0.0
 40
1.0
 50
270.0000000000032
 51
0.0
  0
CIRCLE
  5
A9
  8
DEFAULT
 10
423.5000000000001
 20
388.0000000000005
 30
-0.0000000000000018
 40
1.6
  0
CIRCLE
  5
AA
  8
DEFAULT
 10
490.5000000000001
 20
388.0000000000005
 30
-0.0000000000000018
 40
1.6
  0
ARC
  5
AB
  8
DEFAULT
 10
432.5
 20
398.0
 30
-0.0000000000000018
 40
1.0
 50
0.0
 51
89.99999999999349
  0
LINE
  5
AC
  8
DEFAULT
 10
432.5000000000001
 20
399.0
 30
-0.0000000000000018
 11
418.0
 21
399.0
 31
-0.0000000000000018
  0
LINE
  5
AD
  8
DEFAULT
 10
440.5
 20
398.0
 30
-0.0000000000000018
 11
440.5
 21
396.0
 31
-0.0000000000000018
  0
ARC
  5
AE
  8
DEFAULT
 10
437.0
 20
396.0
 30
-0.0000000000000018
 40
3.5
 50
180.0
 51
0.0
  0
LINE
  5
AF
  8
DEFAULT
 10
433.5
 20
396.0
 30
-0.0000000000000018
 11
433.5
 21
398.0
 31
-0.0000000000000018
  0
ARC
  5
B0
  8
DEFAULT
 10
441.5
 20
398.0
 30
-0.0000000000000018
 40
1.0
 50
90.0
 51
180.0
  0
LINE
  5
B1
  8
DEFAULT
 10
441.5
 20
399.0
 30
-0.0000000000000018
 11
442.5
 21
399.0
 31
-0.0000000000000018
  0
ARC
  5
B2
  8
DEFAULT
 10
442.5
 20
398.0
 30
-0.0000000000000018
 40
1.0
 50
0.0
 51
90.0
  0
LINE
  5
B3
  8
DEFAULT
 10
450.5
 20
398.0
 30
-0.0000000000000018
 11
450.5
 21
396.0
 31
-0.0000000000000018
  0
ARC
  5
B4
  8
DEFAULT
 10
447.0
 20
396.0
 30
-0.0000000000000018
 40
3.5
 50
180.0
 51
0.0
  0
LINE
  5
B5
  8
DEFAULT
 10
443.5
 20
396.0
 30
-0.0000000000000018
 11
443.5
 21
398.0
 31
-0.0000000000000018
  0
ARC
  5
B6
  8
DEFAULT
 10
451.5
 20
398.0
 30
-0.0000000000000018
 40
1.0
 50
90.0
 51
179.9999999999967
  0
LINE
  5
B7
  8
DEFAULT
 10
451.5
 20
399.0
 30
-0.0000000000000018
 11
452.5
 21
399.0
 31
-0.0000000000000018
  0
ARC
  5
B8
  8
DEFAULT
 10
452.5
 20
398.0
 30
-0.0000000000000018
 40
1.0
 50
0.0
 51
90.0
  0
LINE
  5
B9
  8
DEFAULT
 10
460.5
 20
398.0
 30
-0.0000000000000018
 11
460.5
 21
396.0
 31
-0.0000000000000018
  0
ARC
  5
BA
  8
DEFAULT
 10
457.0
 20
396.0
 30
-0.0000000000000018
 40
3.5
 50
180.0
 51
0.0
  0
LINE
  5
BB
  8
DEFAULT
 10
453.5
 20
396.0
 30
-0.0000000000000018
 11
453.5
 21
398.0
 31
-0.0000000000000018
  0
ARC
  5
BC
  8
DEFAULT
 10
461.5
 20
398.0
 30
-0.0000000000000018
 40
1.0
 50
90.0
 51
180.0
  0
LINE
  5
BD
  8
DEFAULT
 10
461.5
 20
399.0
 30
-0.0000000000000018
 11
462.5
 21
399.0
 31
-0.0000000000000018
  0
ARC
  5
BE
  8
DEFAULT
 10
462.5
 20
398.0
 30
-0.0000000000000018
 40
1.0
 50
0.0
 51
90.0
  0
LINE
  5
BF
  8
DEFAULT
 10
470.5
 20
398.0
 30
-0.0000000000000018
 11
470.5
 21
396.0
 31
-0.0000000000000018
  0
ARC
  5
C0
  8
DEFAULT
 10
467.0
 20
396.0
 30
-0.0000000000000018
 40
3.5
 50
180.0
 51
0.0
  0
LINE
  5
C1
  8
DEFAULT
 10
463.5
 20
396.0
 30
-0.0000000000000018
 11
463.5
 21
398.0
 31
-0.0000000000000018
  0
ARC
  5
C2
  8
DEFAULT
 10
471.5
 20
398.0
 30
-0.0000000000000018
 40
1.0
 50
90.0
 51
180.0
  0
LINE
  5
C3
  8
DEFAULT
 10
471.5
 20
399.0
 30
-0.0000000000000018
 11
472.5
 21
399.0
 31
-0.0000000000000018
  0
ARC
  5
C4
  8
DEFAULT
 10
472.5
 20
398.0
 30
-0.0000000000000018
 40
1.0
 50
0.0
 51
90.0
  0
LINE
  5
C5
  8
DEFAULT
 10
480.5
 20
398.0000000000002
 30
-0.0000000000000018
 11
480.5
 21
396.0
 31
-0.0000000000000018
  0
ARC
  5
C6
  8
DEFAULT
 10
477.0
 20
396.0
 30
-0.0000000000000018
 40
3.5
 50
180.0
 51
0.0
  0
LINE
  5
C7
  8
DEFAULT
 10
473.5
 20
396.0
 30
-0.0000000000000018
 11
473.5
 21
398.0
 31
-0.0000000000000018
  0
ARC
  5
C8
  8
DEFAULT
 10
481.5
 20
398.0
 30
-0.0000000000000018
 40
1.0
 50
90.0
 51
179.999999999987
  0
LINE
  5
C9
  8
DEFAULT
 10
496.0
 20
399.0
 30
-0.0000000000000018
 11
481.5
 21
399.0
 31
-0.0000000000000018
  0
ARC
  5
CA
  8
DEFAULT
 10
496.0
 20
398.0
 30
-0.0000000000000018
 40
1.0
 50
0.0000000000032569
 51
90.0
  0
LINE
  5
CB
  8
DEFAULT
 10
497.0
 20
377.0
 30
-0.0000000000000018
 11
497.0
 21
398.0
 31
-0.0000000000000018
  0
ARC
  5
CC
  8
DEFAULT
 10
495.9999999999999
 20
377.0
 30
-0.0000000000000018
 40
1.0
 50
270.0
 51
0.0
  0
LINE
  5
CD
  8
DEFAULT
 10
418.0
 20
376.0
 30
-0.0000000000000018
 11
495.9999999999999
 21
376.0
 31
-0.0000000000000018
  0
ARC
  5
CE
  8
DEFAULT
 10
418.0
 20
377.0
 30
-0.0000000000000018
 40
1.0
 50
180.0
 51
270.0
  0
LINE
  5
CF
  8
DEFAULT
 10
417.0
 20
377.0
 30
-0.0000000000000018
 11
417.0
 21
398.0
 31
-0.0000000000000018
  0
ARC
  5
D0
  8
DEFAULT
 10
418.0
 20
398.0
 30
-0.0000000000000018
 40
1.0
 50
90.0
 51
179.9999999999967
  0
LINE
  5
D1
  8
DEFAULT
 10
462.0
 20
460.0
 30
0.0
 11
488.0
 21
460.0
 31
0.0
  0
LINE
  5
D2
  8
DEFAULT
 10
462.0
 20
460.0
 30
0.0
 11
411.0
 21
460.0
 31
0.0
  0
LINE
  5
D3
  8
DEFAULT
 10
411.0
 20
460.0
 30
0.0
 11
411.0
 21
400.0
 31
0.0
  0
LINE
  5
D4
  8
DEFAULT
 10
185.0000000000072
 20
466.0000000002851
 30
0.0
 11
20.00000000002569
 21
466.0000000003581
 31
0.0
  0
LINE
  5
D5
  8
DEFAULT
 10
20.00000000002569
 20
466.0000000003581
 30
0.0
 11
20.00000000002785
 21
471.0000000003581
 31
0.0
  0
LINE
  5
D6
  8
DEFAULT
 10
20.00000000002785
 20
471.0000000003581
 30
0.0
 11
15.00000000001683
 21
471.0000000003602
 31
0.0
  0
LINE
  5
D7
  8
DEFAULT
 10
15.00000000001683
 20
471.0000000003602
 30
0.0
 11
15.00000000006946
 21
590.0000000003604
 31
0.0
  0
LINE
  5
D8
  8
DEFAULT
 10
15.00000000006946
 20
590.0000000003604
 30
0.0
 11
20.00000000008049
 21
590.0000000003581
 31
0.0
  0
LINE
  5
D9
  8
DEFAULT
 10
20.00000000008049
 20
590.0000000003581
 30
0.0
 11
20.00000000008322
 21
596.0000000003581
 31
0.0
  0
LINE
  5
DA
  8
DEFAULT
 10
20.00000000008322
 20
596.0000000003581
 30
0.0
 11
185.0000000000647
 21
596.0000000002851
 31
0.0
  0
LINE
  5
DB
  8
DEFAULT
 10
185.0000000000647
 20
596.0000000002851
 30
0.0
 11
185.0000000000072
 21
466.0000000002851
 31
0.0
  0
CIRCLE
  5
DC
  8
DEFAULT
 10
260.5000000000001
 20
572.0000000000005
 30
-0.0000000000000853
 40
1.6
  0
CIRCLE
  5
DD
  8
DEFAULT
 10
327.5000000000001
 20
572.0000000000005
 30
-0.0000000000000853
 40
1.6
  0
ARC
  5
DE
  8
DEFAULT
 10
318.5
 20
578.0
 30
-0.0000000000000853
 40
1.0
 50
180.0
 51
270.0
  0
ARC
  5
DF
  8
DEFAULT
 10
319.5
 20
576.0
 30
-0.0000000000000853
 40
1.0
 50
0.0
 51
90.0
  0
ARC
  5
E0
  8
DEFAULT
 10
309.5
 20
578.0
 30
-0.0000000000000853
 40
1.0
 50
269.9999999999935
 51
0.0
  0
ARC
  5
E1
  8
DEFAULT
 10
308.5
 20
578.0
 30
-0.0000000000000853
 40
1.0
 50
180.0
 51
270.0
  0
ARC
  5
E2
  8
DEFAULT
 10
299.5
 20
578.0
 30
-0.0000000000000853
 40
1.0
 50
270.0
 51
0.0
  0
ARC
  5
E3
  8
DEFAULT
 10
298.5
 20
578.0
 30
-0.0000000000000853
 40
1.0
 50
179.9999999999935
 51
270.0
  0
ARC
  5
E4
  8
DEFAULT
 10
289.5
 20
578.0
 30
-0.0000000000000853
 40
1.0
 50
270.0
 51
0.0
  0
ARC
  5
E5
  8
DEFAULT
 10
288.5
 20
578.0
 30
-0.0000000000000853
 40
1.0
 50
180.0
 51
269.9999999999935
  0
ARC
  5
E6
  8
DEFAULT
 10
279.5
 20
578.0
 30
-0.0000000000000853
 40
1.0
 50
270.0281940099537
 51
0.0
  0
ARC
  5
E7
  8
DEFAULT
 10
278.5
 20
578.0
 30
-0.0000000000000853
 40
1.0
 50
180.0
 51
270.0
  0
ARC
  5
E8
  8
DEFAULT
 10
269.5
 20
578.0
 30
-0.0000000000000853
 40
1.0
 50
270.0
 51
0.0
  0
ARC
  5
E9
  8
DEFAULT
 10
268.5
 20
576.0
 30
-0.0000000000000853
 40
1.0
 50
90.0
 51
179.9999999999479
  0
ARC
  5
EA
  8
DEFAULT
 10
274.0
 20
580.0
 30
-0.0000000000000853
 40
3.5
 50
0.0
 51
180.0
  0
ARC
  5
EB
  8
DEFAULT
 10
284.0
 20
580.0
 30
-0.0000000000000853
 40
3.5
 50
0.0
 51
180.0
  0
ARC
  5
EC
  8
DEFAULT
 10
294.0
 20
580.0
 30
-0.0000000000000853
 40
3.5
 50
0.0
 51
180.0
  0
ARC
  5
ED
  8
DEFAULT
 10
304.0
 20
580.0
 30
-0.0000000000000853
 40
3.5
 50
0.0
 51
180.0
  0
ARC
  5
EE
  8
DEFAULT
 10
314.0
 20
580.0
 30
-0.0000000000000853
 40
3.5
 50
0.0
 51
180.0
  0
LINE
  5
EF
  8
DEFAULT
 10
317.5
 20
578.0
 30
-0.0000000000000853
 11
317.5
 21
580.0
 31
-0.0000000000000853
  0
LINE
  5
F0
  8
DEFAULT
 10
319.5
 20
577.0
 30
-0.0000000000000853
 11
318.5
 21
577.0
 31
-0.0000000000000853
  0
LINE
  5
F1
  8
DEFAULT
 10
310.5
 20
578.0
 30
-0.0000000000000853
 11
310.5
 21
580.0
 31
-0.0000000000000853
  0
LINE
  5
F2
  8
DEFAULT
 10
307.5
 20
578.0
 30
-0.0000000000000853
 11
307.5
 21
580.0
 31
-0.0000000000000853
  0
LINE
  5
F3
  8
DEFAULT
 10
309.4999999999999
 20
577.0
 30
-0.0000000000000853
 11
308.5
 21
577.0
 31
-0.0000000000000853
  0
LINE
  5
F4
  8
DEFAULT
 10
300.5
 20
578.0
 30
-0.0000000000000853
 11
300.5
 21
580.0
 31
-0.0000000000000853
  0
LINE
  5
F5
  8
DEFAULT
 10
297.5000000000001
 20
578.0
 30
-0.0000000000000853
 11
297.5000000000001
 21
580.0
 31
-0.0000000000000853
  0
LINE
  5
F6
  8
DEFAULT
 10
299.5
 20
577.0
 30
-0.0000000000000853
 11
298.5
 21
577.0
 31
-0.0000000000000853
  0
LINE
  5
F7
  8
DEFAULT
 10
290.5
 20
578.0
 30
-0.0000000000000853
 11
290.5000000000001
 21
580.0
 31
-0.0000000000000853
  0
LINE
  5
F8
  8
DEFAULT
 10
287.5
 20
578.0
 30
-0.0000000000000853
 11
287.5000000000001
 21
580.0
 31
-0.0000000000000853
  0
LINE
  5
F9
  8
DEFAULT
 10
289.5
 20
577.0
 30
-0.0000000000000853
 11
288.4999999999999
 21
577.0
 31
-0.0000000000000853
  0
LINE
  5
FA
  8
DEFAULT
 10
280.5
 20
578.0
 30
-0.0000000000000853
 11
280.5000000000001
 21
580.0
 31
-0.0000000000000853
  0
LINE
  5
FB
  8
DEFAULT
 10
279.5004920783427
 20
577.0
 30
-0.0000000000000853
 11
278.5
 21
577.0
 31
-0.0000000000000853
  0
LINE
  5
FC
  8
DEFAULT
 10
277.5
 20
578.0
 30
-0.0000000000000853
 11
277.5000000000001
 21
580.0
 31
-0.0000000000000853
  0
LINE
  5
FD
  8
DEFAULT
 10
270.5
 20
578.0
 30
-0.0000000000000853
 11
270.5
 21
580.0
 31
-0.0000000000000853
  0
LINE
  5
FE
  8
DEFAULT
 10
269.5
 20
577.0
 30
-0.0000000000000853
 11
268.5
 21
577.0
 31
-0.0000000000000853
  0
LINE
  5
FF
  8
DEFAULT
 10
267.5000000000001
 20
576.0000000000009
 30
-0.0000000000000853
 11
267.5000000000001
 21
568.0
 31
-0.0000000000000853
  0
ARC
  5
100
  8
DEFAULT
 10
268.5000000000001
 20
568.0
 30
-0.0000000000000853
 40
1.0
 50
180.0
 51
270.0
  0
LINE
  5
101
  8
DEFAULT
 10
268.5
 20
567.0
 30
-0.0000000000000853
 11
319.5
 21
567.0
 31
-0.0000000000000853
  0
ARC
  5
102
  8
DEFAULT
 10
319.5
 20
568.0
 30
-0.0000000000000853
 40
1.0
 50
270.0
 51
0.0
  0
LINE
  5
103
  8
DEFAULT
 10
320.5
 20
568.0
 30
-0.0000000000000853
 11
320.5
 21
576.0
 31
-0.0000000000000853
  0
LINE
  5
104
  8
DEFAULT
 10
299.5
 20
485.0
 30
-0.0000000000000853
 11
298.5
 21
485.0
 31
-0.0000000000000853
  0
LINE
  5
105
  8
DEFAULT
 10
300.5
 20
484.0
 30
-0.0000000000000853
 11
300.5
 21
482.0
 31
-0.0000000000000853
  0
LINE
  5
106
  8
DEFAULT
 10
307.5
 20
484.0
 30
-0.0000000000000853
 11
307.5000000000001
 21
482.0
 31
-0.0000000000000853
  0
LINE
  5
107
  8
DEFAULT
 10
309.5004920783427
 20
485.0
 30
-0.0000000000000853
 11
308.5
 21
485.0
 31
-0.0000000000000853
  0
LINE
  5
108
  8
DEFAULT
 10
310.5
 20
484.0
 30
-0.0000000000000853
 11
310.5000000000001
 21
482.0
 31
-0.0000000000000853
  0
LINE
  5
109
  8
DEFAULT
 10
317.5
 20
484.0
 30
-0.0000000000000853
 11
317.5000000000001
 21
482.0
 31
-0.0000000000000853
  0
ARC
  5
10A
  8
DEFAULT
 10
314.0
 20
482.0
 30
-0.0000000000000853
 40
3.5
 50
180.0
 51
0.0
  0
ARC
  5
10B
  8
DEFAULT
 10
304.0
 20
482.0
 30
-0.0000000000000853
 40
3.5
 50
180.0
 51
0.0
  0
ARC
  5
10C
  8
DEFAULT
 10
298.5
 20
486.0
 30
-0.0000000000000853
 40
1.0
 50
180.0000000000521
 51
270.0
  0
ARC
  5
10D
  8
DEFAULT
 10
299.5
 20
484.0
 30
-0.0000000000000853
 40
1.0
 50
0.0
 51
90.0
  0
ARC
  5
10E
  8
DEFAULT
 10
308.5
 20
484.0
 30
-0.0000000000000853
 40
1.0
 50
90.0
 51
180.0000000000032
  0
ARC
  5
10F
  8
DEFAULT
 10
309.5
 20
484.0
 30
-0.0000000000000853
 40
1.0
 50
0.0000000000032569
 51
89.97180599004632
  0
ARC
  5
110
  8
DEFAULT
 10
318.5
 20
484.0
 30
-0.0000000000000853
 40
1.0
 50
90.00000000000651
 51
180.0000000000032
  0
ARC
  5
111
  8
DEFAULT
 10
319.5
 20
486.0
 30
-0.0000000000000853
 40
1.0
 50
270.0
 51
0.0
  0
LINE
  5
112
  8
DEFAULT
 10
319.5
 20
485.0
 30
-0.0000000000000853
 11
318.5
 21
485.0
 31
-0.0000000000000853
  0
LINE
  5
113
  8
DEFAULT
 10
297.5000000000001
 20
485.9999999999991
 30
-0.0000000000000853
 11
297.5000000000001
 21
494.0
 31
-0.0000000000000853
  0
ARC
  5
114
  8
DEFAULT
 10
298.5000000000001
 20
494.0
 30
-0.0000000000000853
 40
1.0
 50
90.0
 51
180.0
  0
LINE
  5
115
  8
DEFAULT
 10
319.5
 20
495.0
 30
-0.0000000000000853
 11
298.5000000000001
 21
495.0
 31
-0.0000000000000853
  0
LINE
  5
116
  8
DEFAULT
 10
320.5
 20
494.0
 30
-0.0000000000000853
 11
320.5
 21
486.0
 31
-0.0000000000000853
  0
ARC
  5
117
  8
DEFAULT
 10
319.5
 20
494.0
 30
-0.0000000000000853
 40
1.0
 50
0.0
 51
90.0
  0
CIRCLE
  5
118
  8
DEFAULT
 10
327.5000000000001
 20
489.9999999999995
 30
-0.0000000000000853
 40
1.6
  0
CIRCLE
  5
119
  8
DEFAULT
 10
290.5000000000001
 20
489.9999999999995
 30
-0.0000000000000853
 40
1.6
  0
CIRCLE
  5
11A
  8
DEFAULT
 10
335.0000000000005
 20
410.0
 30
-0.0000000000000711
 40
1.6
  0
CIRCLE
  5
11B
  8
DEFAULT
 10
335.0000000000005
 20
447.0000000000002
 30
-0.0000000000000711
 40
1.6
  0
ARC
  5
11C
  8
DEFAULT
 10
331.0
 20
439.0
 30
-0.0000000000000711
 40
1.0
 50
90.0
 51
180.0
  0
LINE
  5
11D
  8
DEFAULT
 10
331.0
 20
440.0
 30
-0.0000000000000711
 11
339.0
 21
440.0
 31
-0.0000000000000711
  0
LINE
  5
11E
  8
DEFAULT
 10
330.0
 20
439.0
 30
-0.0000000000000711
 11
330.0
 21
418.0000000000002
 31
-0.0000000000000711
  0
ARC
  5
11F
  8
DEFAULT
 10
331.0
 20
418.0000000000002
 30
-0.0000000000000711
 40
1.0
 50
180.0
 51
270.0
  0
LINE
  5
120
  8
DEFAULT
 10
339.0000000000009
 20
417.0000000000002
 30
-0.0000000000000711
 11
331.0
 21
417.0000000000002
 31
-0.0000000000000711
  0
LINE
  5
121
  8
DEFAULT
 10
340.0
 20
439.0
 30
-0.0000000000000711
 11
340.0
 21
438.0
 31
-0.0000000000000711
  0
ARC
  5
122
  8
DEFAULT
 10
339.0
 20
439.0
 30
-0.0000000000000711
 40
1.0
 50
0.0
 51
90.0
  0
ARC
  5
123
  8
DEFAULT
 10
341.0
 20
438.0
 30
-0.0000000000000711
 40
1.0
 50
180.0000000000065
 51
270.0000000000032
  0
ARC
  5
124
  8
DEFAULT
 10
341.0
 20
429.0
 30
-0.0000000000000711
 40
1.0
 50
90.00000000000325
 51
179.9718059900463
  0
ARC
  5
125
  8
DEFAULT
 10
341.0
 20
428.0
 30
-0.0000000000000711
 40
1.0
 50
180.0
 51
270.0000000000032
  0
ARC
  5
126
  8
DEFAULT
 10
341.0
 20
419.0
 30
-0.0000000000000711
 40
1.0
 50
90.0
 51
180.0
  0
ARC
  5
127
  8
DEFAULT
 10
339.0
 20
418.0
 30
-0.0000000000000711
 40
1.0
 50
270.0000000000521
 51
0.0
  0
ARC
  5
128
  8
DEFAULT
 10
343.0
 20
423.5
 30
-0.0000000000000711
 40
3.5
 50
270.0
 51
90.0
  0
ARC
  5
129
  8
DEFAULT
 10
343.0
 20
433.5
 30
-0.0000000000000711
 40
3.5
 50
270.0
 51
90.0
  0
LINE
  5
12A
  8
DEFAULT
 10
341.0
 20
437.0
 30
-0.0000000000000711
 11
343.0
 21
437.0000000000002
 31
-0.0000000000000711
  0
LINE
  5
12B
  8
DEFAULT
 10
341.0
 20
430.0
 30
-0.0000000000000711
 11
343.0
 21
430.0000000000002
 31
-0.0000000000000711
  0
LINE
  5
12C
  8
DEFAULT
 10
340.0
 20
429.0004920783429
 30
-0.0000000000000711
 11
340.0
 21
428.0
 31
-0.0000000000000711
  0
LINE
  5
12D
  8
DEFAULT
 10
341.0
 20
427.0
 30
-0.0000000000000711
 11
343.0
 21
427.0000000000002
 31
-0.0000000000000711
  0
LINE
  5
12E
  8
DEFAULT
 10
341.0
 20
420.0
 30
-0.0000000000000711
 11
343.0
 21
420.0
 31
-0.0000000000000711
  0
LINE
  5
12F
  8
DEFAULT
 10
340.0
 20
419.0
 30
-0.0000000000000711
 11
340.0
 21
418.0
 31
-0.0000000000000711
  0
CIRCLE
  5
130
  8
DEFAULT
 10
94.9716912639833
 20
432.0
 30
-0.0000000000001421
 40
7.999999999999886
  0
CIRCLE
  5
131
  8
DEFAULT
 10
35.00000000000125
 20
409.9999999998365
 30
-0.0000000000001421
 40
1.6
  0
CIRCLE
  5
132
  8
DEFAULT
 10
34.99999999999363
 20
446.9999999998365
 30
-0.0000000000001421
 40
1.6
  0
ARC
  5
133
  8
DEFAULT
 10
38.99999999999568
 20
438.9999999998372
 30
-0.0000000000001421
 40
1.0
 50
0.0000000000130276
 51
90.00000000001181
  0
LINE
  5
134
  8
DEFAULT
 10
38.99999999999557
 20
439.9999999998372
 30
-0.0000000000001421
 11
30.99999999999557
 21
439.9999999998356
 31
-0.0000000000001421
  0
LINE
  5
135
  8
DEFAULT
 10
39.99999999999568
 20
438.9999999998374
 30
-0.0000000000001421
 11
40.0
 21
417.9999999998377
 31
-0.0000000000001421
  0
ARC
  5
136
  8
DEFAULT
 10
39.0
 20
417.9999999998374
 30
-0.0000000000001421
 40
1.0
 50
270.0000000000118
 51
0.0000000000130276
  0
LINE
  5
137
  8
DEFAULT
 10
30.99999999999932
 20
416.9999999998358
 30
-0.0000000000001421
 11
39.00000000000023
 21
416.9999999998374
 31
-0.0000000000001421
  0
LINE
  5
138
  8
DEFAULT
 10
29.99999999999568
 20
438.9999999998354
 30
-0.0000000000001421
 11
29.99999999999591
 21
437.9999999998354
 31
-0.0000000000001421
  0
ARC
  5
139
  8
DEFAULT
 10
30.99999999999568
 20
438.9999999998356
 30
-0.0000000000001421
 40
1.0
 50
90.00000000001181
 51
180.000000000013
  0
ARC
  5
13A
  8
DEFAULT
 10
28.99999999999591
 20
437.9999999998352
 30
-0.0000000000001421
 40
1.0
 50
270.0000000000085
 51
0.0000000000065138
  0
ARC
  5
13B
  8
DEFAULT
 10
28.99999999999773
 20
428.9999999998354
 30
-0.0000000000001421
 40
1.0
 50
0.0281940099667173
 51
90.00000000000855
  0
ARC
  5
13C
  8
DEFAULT
 10
28.99999999999795
 20
427.9999999998354
 30
-0.0000000000001421
 40
1.0
 50
270.0000000000085
 51
0.0000000000130276
  0
ARC
  5
13D
  8
DEFAULT
 10
28.99999999999989
 20
418.9999999998354
 30
-0.0000000000001421
 40
1.0
 50
0.0000000000130276
 51
90.00000000001181
  0
ARC
  5
13E
  8
DEFAULT
 10
31.0
 20
417.9999999998356
 30
-0.0000000000001421
 40
1.0
 50
180.000000000013
 51
269.9999999999597
  0
ARC
  5
13F
  8
DEFAULT
 10
26.99999999999886
 20
423.4999999998349
 30
-0.0000000000001421
 40
3.5
 50
90.00000000001181
 51
270.0000000000118
  0
ARC
  5
140
  8
DEFAULT
 10
26.99999999999682
 20
433.4999999998349
 30
-0.0000000000001421
 40
3.5
 50
90.00000000001181
 51
270.0000000000118
  0
LINE
  5
141
  8
DEFAULT
 10
28.99999999999613
 20
436.9999999998352
 30
-0.0000000000001421
 11
26.99999999999613
 21
436.9999999998349
 31
-0.0000000000001421
  0
LINE
  5
142
  8
DEFAULT
 10
28.99999999999761
 20
429.9999999998354
 30
-0.0000000000001421
 11
26.99999999999761
 21
429.9999999998349
 31
-0.0000000000001421
  0
LINE
  5
143
  8
DEFAULT
 10
29.99999999999773
 20
429.0004920781782
 30
-0.0000000000001421
 11
29.99999999999795
 21
427.9999999998354
 31
-0.0000000000001421
  0
LINE
  5
144
  8
DEFAULT
 10
28.99999999999818
 20
426.9999999998354
 30
-0.0000000000001421
 11
26.99999999999818
 21
426.9999999998349
 31
-0.0000000000001421
  0
LINE
  5
145
  8
DEFAULT
 10
28.99999999999966
 20
419.9999999998354
 30
-0.0000000000001421
 11
26.99999999999966
 21
419.9999999998349
 31
-0.0000000000001421
  0
LINE
  5
146
  8
DEFAULT
 10
29.99999999999989
 20
418.9999999998354
 30
-0.0000000000001421
 11
30.0
 21
417.9999999998354
 31
-0.0000000000001421
  0
ARC
  5
147
  8
DEFAULT
 10
362.2000000000111
 20
415.8856311731751
 30
-0.0000000000000853
 40
1.0
 50
180.0
 51
270.0
  0
LINE
  5
148
  8
DEFAULT
 10
362.2000000000111
 20
414.8856311731751
 30
-0.0000000000000853
 11
363.800000000011
 21
414.8856311731751
 31
-0.0000000000000853
  0
ARC
  5
149
  8
DEFAULT
 10
363.800000000011
 20
415.8856311731751
 30
-0.0000000000000853
 40
1.0
 50
270.0
 51
0.0
  0
LINE
  5
14A
  8
DEFAULT
 10
364.800000000011
 20
415.8856311731751
 30
-0.0000000000000853
 11
364.8000000000108
 21
420.0516271270277
 31
-0.0000000000000853
  0
ARC
  5
14B
  8
DEFAULT
 10
363.8000000000108
 20
420.0516271270277
 30
-0.0000000000000853
 40
1.0
 50
0.0
 51
90.0
  0
LINE
  5
14C
  8
DEFAULT
 10
363.8000000000108
 20
421.0516271270277
 30
-0.0000000000000853
 11
362.2000000000108
 21
421.0516271270277
 31
-0.0000000000000853
  0
ARC
  5
14D
  8
DEFAULT
 10
362.2000000000108
 20
420.0516271270277
 30
-0.0000000000000853
 40
1.0
 50
90.0
 51
180.0
  0
LINE
  5
14E
  8
DEFAULT
 10
361.2000000000108
 20
420.0516271270277
 30
-0.0000000000000853
 11
361.2000000000111
 21
415.8856311731751
 31
-0.0000000000000853
  0
ARC
  5
14F
  8
DEFAULT
 10
362.2000000000111
 20
425.8856311731751
 30
-0.0000000000000853
 40
1.0
 50
180.0
 51
270.0
  0
LINE
  5
150
  8
DEFAULT
 10
362.2000000000111
 20
424.8856311731751
 30
-0.0000000000000853
 11
363.800000000011
 21
424.8856311731751
 31
-0.0000000000000853
  0
ARC
  5
151
  8
DEFAULT
 10
363.800000000011
 20
425.8856311731751
 30
-0.0000000000000853
 40
1.0
 50
270.0
 51
0.0
  0
LINE
  5
152
  8
DEFAULT
 10
364.800000000011
 20
425.8856311731751
 30
-0.0000000000000853
 11
364.8000000000108
 21
430.0516271270277
 31
-0.0000000000000853
  0
ARC
  5
153
  8
DEFAULT
 10
363.8000000000108
 20
430.0516271270277
 30
-0.0000000000000853
 40
1.0
 50
0.0
 51
90.0
  0
LINE
  5
154
  8
DEFAULT
 10
363.8000000000108
 20
431.0516271270277
 30
-0.0000000000000853
 11
362.2000000000108
 21
431.0516271270277
 31
-0.0000000000000853
  0
ARC
  5
155
  8
DEFAULT
 10
362.2000000000108
 20
430.0516271270277
 30
-0.0000000000000853
 40
1.0
 50
90.0
 51
180.0
  0
LINE
  5
156
  8
DEFAULT
 10
361.2000000000108
 20
430.0516271270277
 30
-0.0000000000000853
 11
361.2000000000111
 21
425.8856311731751
 31
-0.0000000000000853
  0
ARC
  5
157
  8
DEFAULT
 10
362.2000000000111
 20
475.8856311731751
 30
-0.0000000000000853
 40
1.0
 50
180.0
 51
270.0
  0
LINE
  5
158
  8
DEFAULT
 10
362.2000000000111
 20
474.8856311731751
 30
-0.0000000000000853
 11
363.800000000011
 21
474.8856311731751
 31
-0.0000000000000853
  0
ARC
  5
159
  8
DEFAULT
 10
363.800000000011
 20
475.8856311731751
 30
-0.0000000000000853
 40
1.0
 50
270.0
 51
0.0
  0
LINE
  5
15A
  8
DEFAULT
 10
364.800000000011
 20
475.8856311731751
 30
-0.0000000000000853
 11
364.8000000000108
 21
480.0516271270277
 31
-0.0000000000000853
  0
ARC
  5
15B
  8
DEFAULT
 10
363.8000000000108
 20
480.0516271270277
 30
-0.0000000000000853
 40
1.0
 50
0.0
 51
90.0
  0
LINE
  5
15C
  8
DEFAULT
 10
363.8000000000108
 20
481.0516271270277
 30
-0.0000000000000853
 11
362.2000000000108
 21
481.0516271270277
 31
-0.0000000000000853
  0
ARC
  5
15D
  8
DEFAULT
 10
362.2000000000108
 20
480.0516271270277
 30
-0.0000000000000853
 40
1.0
 50
90.0
 51
180.0
  0
LINE
  5
15E
  8
DEFAULT
 10
361.2000000000108
 20
480.0516271270277
 30
-0.0000000000000853
 11
361.2000000000111
 21
475.8856311731751
 31
-0.0000000000000853
  0
ARC
  5
15F
  8
DEFAULT
 10
362.2000000000111
 20
465.8856311731751
 30
-0.0000000000000853
 40
1.0
 50
180.0
 51
270.0
  0
LINE
  5
160
  8
DEFAULT
 10
362.2000000000111
 20
464.8856311731751
 30
-0.0000000000000853
 11
363.800000000011
 21
464.8856311731751
 31
-0.0000000000000853
  0
ARC
  5
161
  8
DEFAULT
 10
363.800000000011
 20
465.8856311731751
 30
-0.0000000000000853
 40
1.0
 50
270.0
 51
0.0
  0
LINE
  5
162
  8
DEFAULT
 10
364.800000000011
 20
465.8856311731751
 30
-0.0000000000000853
 11
364.8000000000108
 21
470.0516271270277
 31
-0.0000000000000853
  0
ARC
  5
163
  8
DEFAULT
 10
363.8000000000108
 20
470.0516271270277
 30
-0.0000000000000853
 40
1.0
 50
0.0
 51
90.0
  0
LINE
  5
164
  8
DEFAULT
 10
363.8000000000108
 20
471.0516271270277
 30
-0.0000000000000853
 11
362.2000000000108
 21
471.0516271270277
 31
-0.0000000000000853
  0
ARC
  5
165
  8
DEFAULT
 10
362.2000000000108
 20
470.0516271270277
 30
-0.0000000000000853
 40
1.0
 50
90.0
 51
180.0
  0
LINE
  5
166
  8
DEFAULT
 10
361.2000000000108
 20
470.0516271270277
 30
-0.0000000000000853
 11
361.2000000000111
 21
465.8856311731751
 31
-0.0000000000000853
  0
ARC
  5
167
  8
DEFAULT
 10
362.2000000000111
 20
563.885631173175
 30
-0.0000000000000853
 40
1.0
 50
180.0
 51
270.0
  0
LINE
  5
168
  8
DEFAULT
 10
362.2000000000111
 20
562.885631173175
 30
-0.0000000000000853
 11
363.800000000011
 21
562.885631173175
 31
-0.0000000000000853
  0
ARC
  5
169
  8
DEFAULT
 10
363.800000000011
 20
563.885631173175
 30
-0.0000000000000853
 40
1.0
 50
270.0
 51
0.0
  0
LINE
  5
16A
  8
DEFAULT
 10
364.800000000011
 20
563.885631173175
 30
-0.0000000000000853
 11
364.8000000000108
 21
568.0516271270277
 31
-0.0000000000000853
  0
ARC
  5
16B
  8
DEFAULT
 10
363.8000000000108
 20
568.0516271270277
 30
-0.0000000000000853
 40
1.0
 50
0.0
 51
90.0
  0
LINE
  5
16C
  8
DEFAULT
 10
363.8000000000108
 20
569.0516271270277
 30
-0.0000000000000853
 11
362.2000000000108
 21
569.0516271270277
 31
-0.0000000000000853
  0
ARC
  5
16D
  8
DEFAULT
 10
362.2000000000108
 20
568.0516271270277
 30
-0.0000000000000853
 40
1.0
 50
90.0
 51
180.0
  0
LINE
  5
16E
  8
DEFAULT
 10
361.2000000000108
 20
568.0516271270277
 30
-0.0000000000000853
 11
361.2000000000111
 21
563.885631173175
 31
-0.0000000000000853
  0
ARC
  5
16F
  8
DEFAULT
 10
362.2000000000111
 20
573.885631173175
 30
-0.0000000000000853
 40
1.0
 50
180.0
 51
270.0
  0
LINE
  5
170
  8
DEFAULT
 10
362.2000000000111
 20
572.885631173175
 30
-0.0000000000000853
 11
363.800000000011
 21
572.885631173175
 31
-0.0000000000000853
  0
ARC
  5
171
  8
DEFAULT
 10
363.800000000011
 20
573.885631173175
 30
-0.0000000000000853
 40
1.0
 50
270.0
 51
0.0
  0
LINE
  5
172
  8
DEFAULT
 10
364.800000000011
 20
573.885631173175
 30
-0.0000000000000853
 11
364.8000000000108
 21
578.0516271270277
 31
-0.0000000000000853
  0
ARC
  5
173
  8
DEFAULT
 10
363.8000000000108
 20
578.0516271270277
 30
-0.0000000000000853
 40
1.0
 50
0.0
 51
90.0
  0
LINE
  5
174
  8
DEFAULT
 10
363.8000000000108
 20
579.0516271270277
 30
-0.0000000000000853
 11
362.2000000000108
 21
579.0516271270277
 31
-0.0000000000000853
  0
ARC
  5
175
  8
DEFAULT
 10
362.2000000000108
 20
578.0516271270277
 30
-0.0000000000000853
 40
1.0
 50
90.0
 51
180.0
  0
LINE
  5
176
  8
DEFAULT
 10
361.2000000000108
 20
578.0516271270277
 30
-0.0000000000000853
 11
361.2000000000111
 21
573.885631173175
 31
-0.0000000000000853
  0
ARC
  5
177
  8
DEFAULT
 10
362.2000000000111
 20
523.885631173175
 30
-0.0000000000000853
 40
1.0
 50
180.0
 51
270.0
  0
LINE
  5
178
  8
DEFAULT
 10
362.2000000000111
 20
522.885631173175
 30
-0.0000000000000853
 11
363.800000000011
 21
522.885631173175
 31
-0.0000000000000853
  0
ARC
  5
179
  8
DEFAULT
 10
363.800000000011
 20
523.885631173175
 30
-0.0000000000000853
 40
1.0
 50
270.0
 51
0.0
  0
LINE
  5
17A
  8
DEFAULT
 10
364.800000000011
 20
523.885631173175
 30
-0.0000000000000853
 11
364.8000000000108
 21
528.0516271270277
 31
-0.0000000000000853
  0
ARC
  5
17B
  8
DEFAULT
 10
363.8000000000108
 20
528.0516271270277
 30
-0.0000000000000853
 40
1.0
 50
0.0
 51
90.0
  0
LINE
  5
17C
  8
DEFAULT
 10
363.8000000000108
 20
529.0516271270277
 30
-0.0000000000000853
 11
362.2000000000108
 21
529.0516271270277
 31
-0.0000000000000853
  0
ARC
  5
17D
  8
DEFAULT
 10
362.2000000000108
 20
528.0516271270277
 30
-0.0000000000000853
 40
1.0
 50
90.0
 51
180.0
  0
LINE
  5
17E
  8
DEFAULT
 10
361.2000000000108
 20
528.0516271270277
 30
-0.0000000000000853
 11
361.2000000000111
 21
523.885631173175
 31
-0.0000000000000853
  0
ARC
  5
17F
  8
DEFAULT
 10
362.2000000000111
 20
513.885631173175
 30
-0.0000000000000853
 40
1.0
 50
180.0
 51
270.0
  0
LINE
  5
180
  8
DEFAULT
 10
362.2000000000111
 20
512.885631173175
 30
-0.0000000000000853
 11
363.800000000011
 21
512.885631173175
 31
-0.0000000000000853
  0
ARC
  5
181
  8
DEFAULT
 10
363.800000000011
 20
513.885631173175
 30
-0.0000000000000853
 40
1.0
 50
270.0
 51
0.0
  0
LINE
  5
182
  8
DEFAULT
 10
364.800000000011
 20
513.885631173175
 30
-0.0000000000000853
 11
364.8000000000108
 21
518.0516271270277
 31
-0.0000000000000853
  0
ARC
  5
183
  8
DEFAULT
 10
363.8000000000108
 20
518.0516271270277
 30
-0.0000000000000853
 40
1.0
 50
0.0
 51
90.0
  0
LINE
  5
184
  8
DEFAULT
 10
363.8000000000108
 20
519.0516271270277
 30
-0.0000000000000853
 11
362.2000000000108
 21
519.0516271270277
 31
-0.0000000000000853
  0
ARC
  5
185
  8
DEFAULT
 10
362.2000000000108
 20
518.0516271270277
 30
-0.0000000000000853
 40
1.0
 50
90.0
 51
180.0
  0
LINE
  5
186
  8
DEFAULT
 10
361.2000000000108
 20
518.0516271270277
 30
-0.0000000000000853
 11
361.2000000000111
 21
513.885631173175
 31
-0.0000000000000853
  0
LINE
  5
187
  8
DEFAULT
 10
425.000000000011
 20
498.8999999999999
 30
-0.0000000000000853
 11
425.000000000011
 21
474.0999999999998
 31
-0.0000000000000853
  0
ARC
  5
188
  8
DEFAULT
 10
426.6000000000109
 20
474.0999999999998
 30
-0.0000000000000853
 40
1.6
 50
180.0
 51
270.0
  0
LINE
  5
189
  8
DEFAULT
 10
426.6000000000109
 20
472.4999999999998
 30
-0.0000000000000853
 11
443.4000000000109
 21
472.4999999999998
 31
-0.0000000000000853
  0
ARC
  5
18A
  8
DEFAULT
 10
443.4000000000109
 20
474.0999999999998
 30
-0.0000000000000853
 40
1.6
 50
270.0
 51
0.0
  0
LINE
  5
18B
  8
DEFAULT
 10
445.000000000011
 20
474.0999999999998
 30
-0.0000000000000853
 11
445.000000000011
 21
498.8999999999997
 31
-0.0000000000000853
  0
ARC
  5
18C
  8
DEFAULT
 10
443.4000000000109
 20
498.8999999999997
 30
-0.0000000000000853
 40
1.6
 50
0.0
 51
90.0
  0
LINE
  5
18D
  8
DEFAULT
 10
443.4000000000109
 20
500.4999999999998
 30
-0.0000000000000853
 11
426.6000000000109
 21
500.4999999999998
 31
-0.0000000000000853
  0
ARC
  5
18E
  8
DEFAULT
 10
426.6000000000109
 20
498.8999999999997
 30
-0.0000000000000853
 40
1.6
 50
90.0
 51
179.999999999998
  0
CIRCLE
  5
18F
  8
DEFAULT
 10
435.000000000011
 20
506.4999999999998
 30
-0.0000000000000853
 40
1.8
  0
CIRCLE
  5
190
  8
DEFAULT
 10
435.000000000011
 20
466.4999999999998
 30
-0.0000000000000853
 40
1.8
  0
LINE
  5
191
  8
DEFAULT
 10
425.000000000011
 20
581.8999999999999
 30
-0.0000000000000853
 11
425.000000000011
 21
557.0999999999998
 31
-0.0000000000000853
  0
ARC
  5
192
  8
DEFAULT
 10
426.6000000000109
 20
557.0999999999998
 30
-0.0000000000000853
 40
1.6
 50
180.0
 51
270.0
  0
LINE
  5
193
  8
DEFAULT
 10
426.6000000000109
 20
555.4999999999998
 30
-0.0000000000000853
 11
443.4000000000109
 21
555.4999999999998
 31
-0.0000000000000853
  0
ARC
  5
194
  8
DEFAULT
 10
443.4000000000109
 20
557.0999999999998
 30
-0.0000000000000853
 40
1.6
 50
270.0
 51
0.0
  0
LINE
  5
195
  8
DEFAULT
 10
445.000000000011
 20
557.0999999999998
 30
-0.0000000000000853
 11
445.000000000011
 21
581.8999999999997
 31
-0.0000000000000853
  0
ARC
  5
196
  8
DEFAULT
 10
443.4000000000109
 20
581.8999999999997
 30
-0.0000000000000853
 40
1.6
 50
0.0
 51
90.0
  0
LINE
  5
197
  8
DEFAULT
 10
443.4000000000109
 20
583.4999999999998
 30
-0.0000000000000853
 11
426.6000000000109
 21
583.4999999999998
 31
-0.0000000000000853
  0
ARC
  5
198
  8
DEFAULT
 10
426.6000000000109
 20
581.8999999999997
 30
-0.0000000000000853
 40
1.6
 50
90.0
 51
180.0
  0
CIRCLE
  5
199
  8
DEFAULT
 10
435.000000000011
 20
589.4999999999998
 30
-0.0000000000000853
 40
1.8
  0
CIRCLE
  5
19A
  8
DEFAULT
 10
435.000000000011
 20
549.4999999999998
 30
-0.0000000000000853
 40
1.8
  0
CIRCLE
  5
19B
  8
DEFAULT
 10
483.0000000000002
 20
247.2500000000001
 30
-0.0000000000000568
 40
7.749999999999943
  0
CIRCLE
  5
19C
  8
DEFAULT
 10
418.0000000000001
 20
247.0
 30
-0.0000000000000568
 40
11.7
  0
CIRCLE
  5
19D
  8
DEFAULT
 10
406.0000000000001
 20
237.5
 30
-0.0000000000000568
 40
1.5
  0
CIRCLE
  5
19E
  8
DEFAULT
 10
430.0000000000001
 20
256.5
 30
-0.0000000000000568
 40
1.5
  0
CIRCLE
  5
19F
  8
DEFAULT
 10
430.0000000000001
 20
216.5
 30
-0.0000000000000568
 40
1.5
  0
CIRCLE
  5
1A0
  8
DEFAULT
 10
406.0000000000001
 20
197.5000000000001
 30
-0.0000000000000568
 40
1.5
  0
CIRCLE
  5
1A1
  8
DEFAULT
 10
418.0000000000001
 20
207.0
 30
-0.0000000000000568
 40
11.7
  0
LINE
  5
1A2
  8
DEFAULT
 10
428.5000000000001
 20
318.0999999999999
 30
-0.0000000000000568
 11
428.5000000000001
 21
343.9000000000001
 31
-0.0000000000000568
  0
LINE
  5
1A3
  8
DEFAULT
 10
428.5000000000001
 20
343.9000000000001
 30
-0.0000000000000568
 11
428.499067235786
 21
343.9546257762977
 31
0.0
  0
LINE
  5
1A4
  8
DEFAULT
 10
428.499067235786
 20
343.9546257762977
 30
0.0
 11
428.4962700307049
 21
344.0091878613836
 31
0.0000000000000549
  0
LINE
  5
1A5
  8
DEFAULT
 10
428.4962700307049
 20
344.0091878613836
 30
0.0000000000000549
 11
428.4916116461729
 21
344.0636226383074
 31
0.0000000000001076
  0
LINE
  5
1A6
  8
DEFAULT
 10
428.4916116461729
 20
344.0636226383074
 30
0.0000000000001076
 11
428.4850975136582
 21
344.1178666385541
 31
0.0000000000001582
  0
LINE
  5
1A7
  8
DEFAULT
 10
428.4850975136582
 20
344.1178666385541
 30
0.0000000000001582
 11
428.4767352283475
 21
344.171856616046
 31
0.0000000000002066
  0
LINE
  5
1A8
  8
DEFAULT
 10
428.4767352283475
 20
344.171856616046
 30
0.0000000000002066
 11
428.4665345402917
 21
344.2255296208844
 31
0.0000000000002526
  0
LINE
  5
1A9
  8
DEFAULT
 10
428.4665345402917
 20
344.2255296208844
 30
0.0000000000002526
 11
428.4545073430366
 21
344.2788230727465
 31
0.0000000000002963
  0
LINE
  5
1AA
  8
DEFAULT
 10
428.4545073430366
 20
344.2788230727465
 30
0.0000000000002963
 11
428.4406676597563
 21
344.3316748338515
 31
0.0000000000003377
  0
LINE
  5
1AB
  8
DEFAULT
 10
428.4406676597563
 20
344.3316748338515
 30
0.0000000000003377
 11
428.4250316269025
 21
344.3840232814099
 31
0.0000000000003766
  0
LINE
  5
1AC
  8
DEFAULT
 10
428.4250316269025
 20
344.3840232814099
 30
0.0000000000003766
 11
428.4076174753899
 21
344.4358073794738
 31
0.000000000000413
  0
LINE
  5
1AD
  8
DEFAULT
 10
428.4076174753899
 20
344.4358073794738
 30
0.000000000000413
 11
428.3884455093403
 21
344.4869667501011
 31
0.0000000000004469
  0
LINE
  5
1AE
  8
DEFAULT
 10
428.3884455093403
 20
344.4869667501011
 30
0.0000000000004469
 11
428.3675380824085
 21
344.5374417437542
 31
0.0000000000004782
  0
LINE
  5
1AF
  8
DEFAULT
 10
428.3675380824085
 20
344.5374417437542
 30
0.0000000000004782
 11
428.344919571719
 21
344.5871735088484
 31
0.0000000000005069
  0
LINE
  5
1B0
  8
DEFAULT
 10
428.344919571719
 20
344.5871735088484
 30
0.0000000000005069
 11
428.3206163494435
 21
344.6361040603701
 31
0.000000000000533
  0
LINE
  5
1B1
  8
DEFAULT
 10
428.3206163494435
 20
344.6361040603701
 30
0.000000000000533
 11
428.2946567520522
 21
344.684176347485
 31
0.0000000000005565
  0
LINE
  5
1B2
  8
DEFAULT
 10
428.2946567520522
 20
344.684176347485
 30
0.0000000000005565
 11
428.267071047274
 21
344.7313343200569
 31
0.0000000000005772
  0
LINE
  5
1B3
  8
DEFAULT
 10
428.267071047274
 20
344.7313343200569
 30
0.0000000000005772
 11
428.2378913988072
 21
344.7775229939992
 31
0.0000000000005952
  0
LINE
  5
1B4
  8
DEFAULT
 10
428.2378913988072
 20
344.7775229939992
 30
0.0000000000005952
 11
428.2071518288164
 21
344.822688515384
 31
0.0000000000006105
  0
LINE
  5
1B5
  8
DEFAULT
 10
428.2071518288164
 20
344.822688515384
 30
0.0000000000006105
 11
428.1748881782651
 21
344.866778223234
 31
0.000000000000623
  0
LINE
  5
1B6
  8
DEFAULT
 10
428.1748881782651
 20
344.866778223234
 30
0.000000000000623
 11
428.1411380651267
 21
344.909740710922
 31
0.0000000000006328
  0
LINE
  5
1B7
  8
DEFAULT
 10
428.1411380651267
 20
344.909740710922
 30
0.0000000000006328
 11
428.1059408405234
 21
344.951525886109
 31
0.0000000000006398
  0
LINE
  5
1B8
  8
DEFAULT
 10
428.1059408405234
 20
344.951525886109
 30
0.0000000000006398
 11
428.0693375428446
 21
344.9920850291501
 31
0.000000000000644
  0
LINE
  5
1B9
  8
DEFAULT
 10
428.0693375428446
 20
344.9920850291501
 30
0.000000000000644
 11
428.031370849898
 21
345.0313708498987
 31
0.0000000000006454
  0
LINE
  5
1BA
  8
DEFAULT
 10
428.031370849898
 20
345.0313708498987
 30
0.0000000000006454
 11
427.9920850291493
 21
345.0693375428453
 31
0.000000000000644
  0
LINE
  5
1BB
  8
DEFAULT
 10
427.9920850291493
 20
345.0693375428453
 30
0.000000000000644
 11
427.9515258861082
 21
345.105940840524
 31
0.0000000000006398
  0
LINE
  5
1BC
  8
DEFAULT
 10
427.9515258861082
 20
345.105940840524
 30
0.0000000000006398
 11
427.9097407109211
 21
345.1411380651273
 31
0.0000000000006328
  0
LINE
  5
1BD
  8
DEFAULT
 10
427.9097407109211
 20
345.1411380651273
 30
0.0000000000006328
 11
427.8667782232332
 21
345.1748881782657
 31
0.000000000000623
  0
LINE
  5
1BE
  8
DEFAULT
 10
427.8667782232332
 20
345.1748881782657
 30
0.000000000000623
 11
427.8226885153832
 21
345.2071518288169
 31
0.0000000000006105
  0
LINE
  5
1BF
  8
DEFAULT
 10
427.8226885153832
 20
345.2071518288169
 30
0.0000000000006105
 11
427.7775229939983
 21
345.2378913988077
 31
0.0000000000005952
  0
LINE
  5
1C0
  8
DEFAULT
 10
427.7775229939983
 20
345.2378913988077
 30
0.0000000000005952
 11
427.7313343200561
 21
345.2670710472746
 31
0.0000000000005772
  0
LINE
  5
1C1
  8
DEFAULT
 10
427.7313343200561
 20
345.2670710472746
 30
0.0000000000005772
 11
427.6841763474841
 21
345.2946567520526
 31
0.0000000000005565
  0
LINE
  5
1C2
  8
DEFAULT
 10
427.6841763474841
 20
345.2946567520526
 30
0.0000000000005565
 11
427.6361040603691
 21
345.320616349444
 31
0.000000000000533
  0
LINE
  5
1C3
  8
DEFAULT
 10
427.6361040603691
 20
345.320616349444
 30
0.000000000000533
 11
427.5871735088474
 21
345.3449195717195
 31
0.0000000000005069
  0
LINE
  5
1C4
  8
DEFAULT
 10
427.5871735088474
 20
345.3449195717195
 30
0.0000000000005069
 11
427.5374417437532
 21
345.3675380824089
 31
0.0000000000004782
  0
LINE
  5
1C5
  8
DEFAULT
 10
427.5374417437532
 20
345.3675380824089
 30
0.0000000000004782
 11
427.4869667501001
 21
345.3884455093407
 31
0.0000000000004469
  0
LINE
  5
1C6
  8
DEFAULT
 10
427.4869667501001
 20
345.3884455093407
 30
0.0000000000004469
 11
427.4358073794728
 21
345.4076174753902
 31
0.000000000000413
  0
LINE
  5
1C7
  8
DEFAULT
 10
427.4358073794728
 20
345.4076174753902
 30
0.000000000000413
 11
427.3840232814089
 21
345.4250316269028
 31
0.0000000000003766
  0
LINE
  5
1C8
  8
DEFAULT
 10
427.3840232814089
 20
345.4250316269028
 30
0.0000000000003766
 11
427.3316748338504
 21
345.4406676597566
 31
0.0000000000003377
  0
LINE
  5
1C9
  8
DEFAULT
 10
427.3316748338504
 20
345.4406676597566
 30
0.0000000000003377
 11
427.2788230727454
 21
345.4545073430368
 31
0.0000000000002963
  0
LINE
  5
1CA
  8
DEFAULT
 10
427.2788230727454
 20
345.4545073430368
 30
0.0000000000002963
 11
427.2255296208833
 21
345.4665345402918
 31
0.0000000000002526
  0
LINE
  5
1CB
  8
DEFAULT
 10
427.2255296208833
 20
345.4665345402918
 30
0.0000000000002526
 11
427.171856616045
 21
345.4767352283475
 31
0.0000000000002066
  0
LINE
  5
1CC
  8
DEFAULT
 10
427.171856616045
 20
345.4767352283475
 30
0.0000000000002066
 11
427.117866638553
 21
345.4850975136581
 31
0.0000000000001582
  0
LINE
  5
1CD
  8
DEFAULT
 10
427.117866638553
 20
345.4850975136581
 30
0.0000000000001582
 11
427.0636226383064
 21
345.4916116461729
 31
0.0000000000001076
  0
LINE
  5
1CE
  8
DEFAULT
 10
427.0636226383064
 20
345.4916116461729
 30
0.0000000000001076
 11
427.0091878613825
 21
345.4962700307049
 31
0.0000000000000549
  0
LINE
  5
1CF
  8
DEFAULT
 10
427.0091878613825
 20
345.4962700307049
 30
0.0000000000000549
 11
426.9546257762966
 21
345.4990672357858
 31
0.0
  0
LINE
  5
1D0
  8
DEFAULT
 10
426.9546257762966
 20
345.4990672357858
 30
0.0
 11
426.899999999999
 21
345.4999999999999
 31
-0.0000000000000568
  0
LINE
  5
1D1
  8
DEFAULT
 10
426.899999999999
 20
345.4999999999999
 30
-0.0000000000000568
 11
409.1
 21
345.5
 31
-0.0000000000000568
  0
LINE
  5
1D2
  8
DEFAULT
 10
409.1
 20
345.5
 30
-0.0000000000000568
 11
409.0453742237025
 21
345.499067235786
 31
-0.0000000000000148
  0
LINE
  5
1D3
  8
DEFAULT
 10
409.0453742237025
 20
345.499067235786
 30
-0.0000000000000148
 11
408.9908121386165
 21
345.4962700307049
 31
0.0000000000000258
  0
LINE
  5
1D4
  8
DEFAULT
 10
408.9908121386165
 20
345.4962700307049
 30
0.0000000000000258
 11
408.9363773616928
 21
345.4916116461731
 31
0.0000000000000647
  0
LINE
  5
1D5
  8
DEFAULT
 10
408.9363773616928
 20
345.4916116461731
 30
0.0000000000000647
 11
408.8821333614462
 21
345.4850975136583
 31
0.0000000000001021
  0
LINE
  5
1D6
  8
DEFAULT
 10
408.8821333614462
 20
345.4850975136583
 30
0.0000000000001021
 11
408.8281433839543
 21
345.4767352283477
 31
0.0000000000001379
  0
LINE
  5
1D7
  8
DEFAULT
 10
408.8281433839543
 20
345.4767352283477
 30
0.0000000000001379
 11
408.774470379116
 21
345.4665345402919
 31
0.0000000000001719
  0
LINE
  5
1D8
  8
DEFAULT
 10
408.774470379116
 20
345.4665345402919
 30
0.0000000000001719
 11
408.721176927254
 21
345.4545073430369
 31
0.0000000000002042
  0
LINE
  5
1D9
  8
DEFAULT
 10
408.721176927254
 20
345.4545073430369
 30
0.0000000000002042
 11
408.668325166149
 21
345.4406676597567
 31
0.0000000000002348
  0
LINE
  5
1DA
  8
DEFAULT
 10
408.668325166149
 20
345.4406676597567
 30
0.0000000000002348
 11
408.6159767185906
 21
345.425031626903
 31
0.0000000000002635
  0
LINE
  5
1DB
  8
DEFAULT
 10
408.6159767185906
 20
345.425031626903
 30
0.0000000000002635
 11
408.5641926205267
 21
345.4076174753905
 31
0.0000000000002905
  0
LINE
  5
1DC
  8
DEFAULT
 10
408.5641926205267
 20
345.4076174753905
 30
0.0000000000002905
 11
408.5130332498994
 21
345.388445509341
 31
0.0000000000003155
  0
LINE
  5
1DD
  8
DEFAULT
 10
408.5130332498994
 20
345.388445509341
 30
0.0000000000003155
 11
408.4625582562464
 21
345.3675380824092
 31
0.0000000000003387
  0
LINE
  5
1DE
  8
DEFAULT
 10
408.4625582562464
 20
345.3675380824092
 30
0.0000000000003387
 11
408.4128264911522
 21
345.3449195717197
 31
0.0000000000003599
  0
LINE
  5
1DF
  8
DEFAULT
 10
408.4128264911522
 20
345.3449195717197
 30
0.0000000000003599
 11
408.3638959396305
 21
345.3206163494443
 31
0.0000000000003792
  0
LINE
  5
1E0
  8
DEFAULT
 10
408.3638959396305
 20
345.3206163494443
 30
0.0000000000003792
 11
408.3158236525156
 21
345.294656752053
 31
0.0000000000003965
  0
LINE
  5
1E1
  8
DEFAULT
 10
408.3158236525156
 20
345.294656752053
 30
0.0000000000003965
 11
408.2686656799438
 21
345.267071047275
 31
0.0000000000004118
  0
LINE
  5
1E2
  8
DEFAULT
 10
408.2686656799438
 20
345.267071047275
 30
0.0000000000004118
 11
408.2224770060015
 21
345.2378913988082
 31
0.0000000000004252
  0
LINE
  5
1E3
  8
DEFAULT
 10
408.2224770060015
 20
345.2378913988082
 30
0.0000000000004252
 11
408.1773114846167
 21
345.2071518288174
 31
0.0000000000004365
  0
LINE
  5
1E4
  8
DEFAULT
 10
408.1773114846167
 20
345.2071518288174
 30
0.0000000000004365
 11
408.1332217767667
 21
345.1748881782663
 31
0.0000000000004457
  0
LINE
  5
1E5
  8
DEFAULT
 10
408.1332217767667
 20
345.1748881782663
 30
0.0000000000004457
 11
408.0902592890787
 21
345.1411380651278
 31
0.0000000000004529
  0
LINE
  5
1E6
  8
DEFAULT
 10
408.0902592890787
 20
345.1411380651278
 30
0.0000000000004529
 11
408.0484741138917
 21
345.1059408405246
 31
0.0000000000004581
  0
LINE
  5
1E7
  8
DEFAULT
 10
408.0484741138917
 20
345.1059408405246
 30
0.0000000000004581
 11
408.0079149708507
 21
345.0693375428459
 31
0.0000000000004612
  0
LINE
  5
1E8
  8
DEFAULT
 10
408.0079149708507
 20
345.0693375428459
 30
0.0000000000004612
 11
407.9686291501019
 21
345.0313708498994
 31
0.0000000000004622
  0
LINE
  5
1E9
  8
DEFAULT
 10
407.9686291501019
 20
345.0313708498994
 30
0.0000000000004622
 11
407.9306624571554
 21
344.9920850291508
 31
0.0000000000004612
  0
LINE
  5
1EA
  8
DEFAULT
 10
407.9306624571554
 20
344.9920850291508
 30
0.0000000000004612
 11
407.8940591594767
 21
344.9515258861098
 31
0.0000000000004581
  0
LINE
  5
1EB
  8
DEFAULT
 10
407.8940591594767
 20
344.9515258861098
 30
0.0000000000004581
 11
407.8588619348734
 21
344.9097407109228
 31
0.0000000000004529
  0
LINE
  5
1EC
  8
DEFAULT
 10
407.8588619348734
 20
344.9097407109228
 30
0.0000000000004529
 11
407.825111821735
 21
344.8667782232349
 31
0.0000000000004457
  0
LINE
  5
1ED
  8
DEFAULT
 10
407.825111821735
 20
344.8667782232349
 30
0.0000000000004457
 11
407.7928481711837
 21
344.8226885153849
 31
0.0000000000004365
  0
LINE
  5
1EE
  8
DEFAULT
 10
407.7928481711837
 20
344.8226885153849
 30
0.0000000000004365
 11
407.7621086011929
 21
344.7775229940001
 31
0.0000000000004252
  0
LINE
  5
1EF
  8
DEFAULT
 10
407.7621086011929
 20
344.7775229940001
 30
0.0000000000004252
 11
407.732928952726
 21
344.731334320058
 31
0.0000000000004118
  0
LINE
  5
1F0
  8
DEFAULT
 10
407.732928952726
 20
344.731334320058
 30
0.0000000000004118
 11
407.7053432479481
 21
344.6841763474862
 31
0.0000000000003965
  0
LINE
  5
1F1
  8
DEFAULT
 10
407.7053432479481
 20
344.6841763474862
 30
0.0000000000003965
 11
407.6793836505566
 21
344.6361040603712
 31
0.0000000000003792
  0
LINE
  5
1F2
  8
DEFAULT
 10
407.6793836505566
 20
344.6361040603712
 30
0.0000000000003792
 11
407.6550804282812
 21
344.5871735088495
 31
0.0000000000003599
  0
LINE
  5
1F3
  8
DEFAULT
 10
407.6550804282812
 20
344.5871735088495
 30
0.0000000000003599
 11
407.6324619175916
 21
344.5374417437554
 31
0.0000000000003387
  0
LINE
  5
1F4
  8
DEFAULT
 10
407.6324619175916
 20
344.5374417437554
 30
0.0000000000003387
 11
407.6115544906598
 21
344.4869667501023
 31
0.0000000000003155
  0
LINE
  5
1F5
  8
DEFAULT
 10
407.6115544906598
 20
344.4869667501023
 30
0.0000000000003155
 11
407.5923825246102
 21
344.4358073794751
 31
0.0000000000002905
  0
LINE
  5
1F6
  8
DEFAULT
 10
407.5923825246102
 20
344.4358073794751
 30
0.0000000000002905
 11
407.5749683730977
 21
344.3840232814113
 31
0.0000000000002635
  0
LINE
  5
1F7
  8
DEFAULT
 10
407.5749683730977
 20
344.3840232814113
 30
0.0000000000002635
 11
407.5593323402438
 21
344.3316748338528
 31
0.0000000000002348
  0
LINE
  5
1F8
  8
DEFAULT
 10
407.5593323402438
 20
344.3316748338528
 30
0.0000000000002348
 11
407.5454926569636
 21
344.278823072748
 31
0.0000000000002042
  0
LINE
  5
1F9
  8
DEFAULT
 10
407.5454926569636
 20
344.278823072748
 30
0.0000000000002042
 11
407.5334654597086
 21
344.2255296208859
 31
0.0000000000001719
  0
LINE
  5
1FA
  8
DEFAULT
 10
407.5334654597086
 20
344.2255296208859
 30
0.0000000000001719
 11
407.5232647716527
 21
344.1718566160476
 31
0.0000000000001379
  0
LINE
  5
1FB
  8
DEFAULT
 10
407.5232647716527
 20
344.1718566160476
 30
0.0000000000001379
 11
407.5149024863421
 21
344.1178666385558
 31
0.0000000000001021
  0
LINE
  5
1FC
  8
DEFAULT
 10
407.5149024863421
 20
344.1178666385558
 30
0.0000000000001021
 11
407.5083883538273
 21
344.0636226383091
 31
0.0000000000000647
  0
LINE
  5
1FD
  8
DEFAULT
 10
407.5083883538273
 20
344.0636226383091
 30
0.0000000000000647
 11
407.5037299692953
 21
344.0091878613853
 31
0.0000000000000258
  0
LINE
  5
1FE
  8
DEFAULT
 10
407.5037299692953
 20
344.0091878613853
 30
0.0000000000000258
 11
407.5009327642143
 21
343.9546257762995
 31
-0.0000000000000148
  0
LINE
  5
1FF
  8
DEFAULT
 10
407.5009327642143
 20
343.9546257762995
 30
-0.0000000000000148
 11
407.5000000000001
 21
343.9000000000019
 31
-0.0000000000000568
  0
LINE
  5
200
  8
DEFAULT
 10
407.5000000000001
 20
343.9000000000019
 30
-0.0000000000000568
 11
407.5000000000001
 21
318.0999999999999
 31
-0.0000000000000568
  0
LINE
  5
201
  8
DEFAULT
 10
407.5000000000001
 20
318.0999999999999
 30
-0.0000000000000568
 11
407.5009327642142
 21
318.0453742237024
 31
-0.0000000000000148
  0
LINE
  5
202
  8
DEFAULT
 10
407.5009327642142
 20
318.0453742237024
 30
-0.0000000000000148
 11
407.5037299692952
 21
317.9908121386165
 31
0.0000000000000258
  0
LINE
  5
203
  8
DEFAULT
 10
407.5037299692952
 20
317.9908121386165
 30
0.0000000000000258
 11
407.5083883538271
 21
317.9363773616927
 31
0.0000000000000647
  0
LINE
  5
204
  8
DEFAULT
 10
407.5083883538271
 20
317.9363773616927
 30
0.0000000000000647
 11
407.5149024863419
 21
317.882133361446
 31
0.0000000000001021
  0
LINE
  5
205
  8
DEFAULT
 10
407.5149024863419
 20
317.882133361446
 30
0.0000000000001021
 11
407.5232647716525
 21
317.8281433839542
 31
0.0000000000001379
  0
LINE
  5
206
  8
DEFAULT
 10
407.5232647716525
 20
317.8281433839542
 30
0.0000000000001379
 11
407.5334654597082
 21
317.7744703791158
 31
0.0000000000001719
  0
LINE
  5
207
  8
DEFAULT
 10
407.5334654597082
 20
317.7744703791158
 30
0.0000000000001719
 11
407.5454926569632
 21
317.7211769272538
 31
0.0000000000002042
  0
LINE
  5
208
  8
DEFAULT
 10
407.5454926569632
 20
317.7211769272538
 30
0.0000000000002042
 11
407.5593323402434
 21
317.6683251661489
 31
0.0000000000002348
  0
LINE
  5
209
  8
DEFAULT
 10
407.5593323402434
 20
317.6683251661489
 30
0.0000000000002348
 11
407.5749683730972
 21
317.6159767185904
 31
0.0000000000002635
  0
LINE
  5
20A
  8
DEFAULT
 10
407.5749683730972
 20
317.6159767185904
 30
0.0000000000002635
 11
407.5923825246097
 21
317.5641926205266
 31
0.0000000000002905
  0
LINE
  5
20B
  8
DEFAULT
 10
407.5923825246097
 20
317.5641926205266
 30
0.0000000000002905
 11
407.6115544906592
 21
317.5130332498993
 31
0.0000000000003155
  0
LINE
  5
20C
  8
DEFAULT
 10
407.6115544906592
 20
317.5130332498993
 30
0.0000000000003155
 11
407.632461917591
 21
317.4625582562462
 31
0.0000000000003387
  0
LINE
  5
20D
  8
DEFAULT
 10
407.632461917591
 20
317.4625582562462
 30
0.0000000000003387
 11
407.6550804282804
 21
317.4128264911521
 31
0.0000000000003599
  0
LINE
  5
20E
  8
DEFAULT
 10
407.6550804282804
 20
317.4128264911521
 30
0.0000000000003599
 11
407.6793836505558
 21
317.3638959396304
 31
0.0000000000003792
  0
LINE
  5
20F
  8
DEFAULT
 10
407.6793836505558
 20
317.3638959396304
 30
0.0000000000003792
 11
407.7053432479472
 21
317.3158236525153
 31
0.0000000000003965
  0
LINE
  5
210
  8
DEFAULT
 10
407.7053432479472
 20
317.3158236525153
 30
0.0000000000003965
 11
407.7329289527252
 21
317.2686656799436
 31
0.0000000000004118
  0
LINE
  5
211
  8
DEFAULT
 10
407.7329289527252
 20
317.2686656799436
 30
0.0000000000004118
 11
407.762108601192
 21
317.2224770060013
 31
0.0000000000004252
  0
LINE
  5
212
  8
DEFAULT
 10
407.762108601192
 20
317.2224770060013
 30
0.0000000000004252
 11
407.7928481711828
 21
317.1773114846165
 31
0.0000000000004365
  0
LINE
  5
213
  8
DEFAULT
 10
407.7928481711828
 20
317.1773114846165
 30
0.0000000000004365
 11
407.825111821734
 21
317.1332217767666
 31
0.0000000000004457
  0
LINE
  5
214
  8
DEFAULT
 10
407.825111821734
 20
317.1332217767666
 30
0.0000000000004457
 11
407.8588619348724
 21
317.0902592890786
 31
0.0000000000004529
  0
LINE
  5
215
  8
DEFAULT
 10
407.8588619348724
 20
317.0902592890786
 30
0.0000000000004529
 11
407.8940591594756
 21
317.0484741138916
 31
0.0000000000004581
  0
LINE
  5
216
  8
DEFAULT
 10
407.8940591594756
 20
317.0484741138916
 30
0.0000000000004581
 11
407.9306624571543
 21
317.0079149708504
 31
0.0000000000004612
  0
LINE
  5
217
  8
DEFAULT
 10
407.9306624571543
 20
317.0079149708504
 30
0.0000000000004612
 11
407.9686291501008
 21
316.9686291501018
 31
0.0000000000004622
  0
LINE
  5
218
  8
DEFAULT
 10
407.9686291501008
 20
316.9686291501018
 30
0.0000000000004622
 11
408.0079149708494
 21
316.9306624571553
 31
0.0000000000004612
  0
LINE
  5
219
  8
DEFAULT
 10
408.0079149708494
 20
316.9306624571553
 30
0.0000000000004612
 11
408.0484741138904
 21
316.8940591594765
 31
0.0000000000004581
  0
LINE
  5
21A
  8
DEFAULT
 10
408.0484741138904
 20
316.8940591594765
 30
0.0000000000004581
 11
408.0902592890774
 21
316.8588619348733
 31
0.0000000000004529
  0
LINE
  5
21B
  8
DEFAULT
 10
408.0902592890774
 20
316.8588619348733
 30
0.0000000000004529
 11
408.1332217767654
 21
316.8251118217348
 31
0.0000000000004457
  0
LINE
  5
21C
  8
DEFAULT
 10
408.1332217767654
 20
316.8251118217348
 30
0.0000000000004457
 11
408.1773114846154
 21
316.7928481711836
 31
0.0000000000004365
  0
LINE
  5
21D
  8
DEFAULT
 10
408.1773114846154
 20
316.7928481711836
 30
0.0000000000004365
 11
408.2224770060001
 21
316.7621086011928
 31
0.0000000000004252
  0
LINE
  5
21E
  8
DEFAULT
 10
408.2224770060001
 20
316.7621086011928
 30
0.0000000000004252
 11
408.2686656799423
 21
316.7329289527259
 31
0.0000000000004118
  0
LINE
  5
21F
  8
DEFAULT
 10
408.2686656799423
 20
316.7329289527259
 30
0.0000000000004118
 11
408.3158236525142
 21
316.7053432479479
 31
0.0000000000003965
  0
LINE
  5
220
  8
DEFAULT
 10
408.3158236525142
 20
316.7053432479479
 30
0.0000000000003965
 11
408.3638959396291
 21
316.6793836505564
 31
0.0000000000003792
  0
LINE
  5
221
  8
DEFAULT
 10
408.3638959396291
 20
316.6793836505564
 30
0.0000000000003792
 11
408.4128264911508
 21
316.655080428281
 31
0.0000000000003599
  0
LINE
  5
222
  8
DEFAULT
 10
408.4128264911508
 20
316.655080428281
 30
0.0000000000003599
 11
408.4625582562449
 21
316.6324619175915
 31
0.0000000000003387
  0
LINE
  5
223
  8
DEFAULT
 10
408.4625582562449
 20
316.6324619175915
 30
0.0000000000003387
 11
408.5130332498979
 21
316.6115544906597
 31
0.0000000000003155
  0
LINE
  5
224
  8
DEFAULT
 10
408.5130332498979
 20
316.6115544906597
 30
0.0000000000003155
 11
408.5641926205252
 21
316.5923825246101
 31
0.0000000000002905
  0
LINE
  5
225
  8
DEFAULT
 10
408.5641926205252
 20
316.5923825246101
 30
0.0000000000002905
 11
408.615976718589
 21
316.5749683730975
 31
0.0000000000002635
  0
LINE
  5
226
  8
DEFAULT
 10
408.615976718589
 20
316.5749683730975
 30
0.0000000000002635
 11
408.6683251661475
 21
316.5593323402437
 31
0.0000000000002348
  0
LINE
  5
227
  8
DEFAULT
 10
408.6683251661475
 20
316.5593323402437
 30
0.0000000000002348
 11
408.7211769272523
 21
316.5454926569635
 31
0.0000000000002042
  0
LINE
  5
228
  8
DEFAULT
 10
408.7211769272523
 20
316.5454926569635
 30
0.0000000000002042
 11
408.7744703791143
 21
316.5334654597085
 31
0.0000000000001719
  0
LINE
  5
229
  8
DEFAULT
 10
408.7744703791143
 20
316.5334654597085
 30
0.0000000000001719
 11
408.8281433839527
 21
316.5232647716526
 31
0.0000000000001379
  0
LINE
  5
22A
  8
DEFAULT
 10
408.8281433839527
 20
316.5232647716526
 30
0.0000000000001379
 11
408.8821333614446
 21
316.514902486342
 31
0.0000000000001021
  0
LINE
  5
22B
  8
DEFAULT
 10
408.8821333614446
 20
316.514902486342
 30
0.0000000000001021
 11
408.9363773616913
 21
316.5083883538271
 31
0.0000000000000647
  0
LINE
  5
22C
  8
DEFAULT
 10
408.9363773616913
 20
316.5083883538271
 30
0.0000000000000647
 11
408.990812138615
 21
316.5037299692952
 31
0.0000000000000258
  0
LINE
  5
22D
  8
DEFAULT
 10
408.990812138615
 20
316.5037299692952
 30
0.0000000000000258
 11
409.0453742237009
 21
316.5009327642141
 31
-0.0000000000000148
  0
LINE
  5
22E
  8
DEFAULT
 10
409.0453742237009
 20
316.5009327642141
 30
-0.0000000000000148
 11
409.0999999999984
 21
316.5
 31
-0.0000000000000568
  0
LINE
  5
22F
  8
DEFAULT
 10
409.0999999999984
 20
316.5
 30
-0.0000000000000568
 11
426.9
 21
316.5
 31
-0.0000000000000568
  0
LINE
  5
230
  8
DEFAULT
 10
426.9
 20
316.5
 30
-0.0000000000000568
 11
426.9546257762976
 21
316.5009327642141
 31
-0.0000000000000202
  0
LINE
  5
231
  8
DEFAULT
 10
426.9546257762976
 20
316.5009327642141
 30
-0.0000000000000202
 11
427.0091878613835
 21
316.5037299692951
 31
0.0000000000000152
  0
LINE
  5
232
  8
DEFAULT
 10
427.0091878613835
 20
316.5037299692951
 30
0.0000000000000152
 11
427.0636226383073
 21
316.5083883538271
 31
0.0000000000000491
  0
LINE
  5
233
  8
DEFAULT
 10
427.0636226383073
 20
316.5083883538271
 30
0.0000000000000491
 11
427.117866638554
 21
316.5149024863419
 31
0.0000000000000817
  0
LINE
  5
234
  8
DEFAULT
 10
427.117866638554
 20
316.5149024863419
 30
0.0000000000000817
 11
427.1718566160458
 21
316.5232647716525
 31
0.0000000000001129
  0
LINE
  5
235
  8
DEFAULT
 10
427.1718566160458
 20
316.5232647716525
 30
0.0000000000001129
 11
427.2255296208842
 21
316.5334654597083
 31
0.0000000000001426
  0
LINE
  5
236
  8
DEFAULT
 10
427.2255296208842
 20
316.5334654597083
 30
0.0000000000001426
 11
427.2788230727463
 21
316.5454926569633
 31
0.0000000000001707
  0
LINE
  5
237
  8
DEFAULT
 10
427.2788230727463
 20
316.5454926569633
 30
0.0000000000001707
 11
427.3316748338513
 21
316.5593323402435
 31
0.0000000000001974
  0
LINE
  5
238
  8
DEFAULT
 10
427.3316748338513
 20
316.5593323402435
 30
0.0000000000001974
 11
427.3840232814097
 21
316.5749683730974
 31
0.0000000000002224
  0
LINE
  5
239
  8
DEFAULT
 10
427.3840232814097
 20
316.5749683730974
 30
0.0000000000002224
 11
427.4358073794737
 21
316.5923825246099
 31
0.0000000000002459
  0
LINE
  5
23A
  8
DEFAULT
 10
427.4358073794737
 20
316.5923825246099
 30
0.0000000000002459
 11
427.4869667501009
 21
316.6115544906595
 31
0.0000000000002677
  0
LINE
  5
23B
  8
DEFAULT
 10
427.4869667501009
 20
316.6115544906595
 30
0.0000000000002677
 11
427.537441743754
 21
316.6324619175913
 31
0.0000000000002879
  0
LINE
  5
23C
  8
DEFAULT
 10
427.537441743754
 20
316.6324619175913
 30
0.0000000000002879
 11
427.5871735088481
 21
316.6550804282808
 31
0.0000000000003064
  0
LINE
  5
23D
  8
DEFAULT
 10
427.5871735088481
 20
316.6550804282808
 30
0.0000000000003064
 11
427.6361040603699
 21
316.6793836505562
 31
0.0000000000003233
  0
LINE
  5
23E
  8
DEFAULT
 10
427.6361040603699
 20
316.6793836505562
 30
0.0000000000003233
 11
427.6841763474849
 21
316.7053432479476
 31
0.0000000000003384
  0
LINE
  5
23F
  8
DEFAULT
 10
427.6841763474849
 20
316.7053432479476
 30
0.0000000000003384
 11
427.7313343200568
 21
316.7329289527257
 31
0.0000000000003517
  0
LINE
  5
240
  8
DEFAULT
 10
427.7313343200568
 20
316.7329289527257
 30
0.0000000000003517
 11
427.777522993999
 21
316.7621086011925
 31
0.0000000000003633
  0
LINE
  5
241
  8
DEFAULT
 10
427.777522993999
 20
316.7621086011925
 30
0.0000000000003633
 11
427.8226885153838
 21
316.7928481711833
 31
0.0000000000003732
  0
LINE
  5
242
  8
DEFAULT
 10
427.8226885153838
 20
316.7928481711833
 30
0.0000000000003732
 11
427.8667782232338
 21
316.8251118217346
 31
0.0000000000003812
  0
LINE
  5
243
  8
DEFAULT
 10
427.8667782232338
 20
316.8251118217346
 30
0.0000000000003812
 11
427.9097407109218
 21
316.8588619348729
 31
0.0000000000003875
  0
LINE
  5
244
  8
DEFAULT
 10
427.9097407109218
 20
316.8588619348729
 30
0.0000000000003875
 11
427.9515258861088
 21
316.8940591594762
 31
0.000000000000392
  0
LINE
  5
245
  8
DEFAULT
 10
427.9515258861088
 20
316.8940591594762
 30
0.000000000000392
 11
427.9920850291499
 21
316.9306624571551
 31
0.0000000000003947
  0
LINE
  5
246
  8
DEFAULT
 10
427.9920850291499
 20
316.9306624571551
 30
0.0000000000003947
 11
428.0313708498985
 21
316.9686291501015
 31
0.0000000000003956
  0
LINE
  5
247
  8
DEFAULT
 10
428.0313708498985
 20
316.9686291501015
 30
0.0000000000003956
 11
428.0693375428451
 21
317.0079149708502
 31
0.0000000000003947
  0
LINE
  5
248
  8
DEFAULT
 10
428.0693375428451
 20
317.0079149708502
 30
0.0000000000003947
 11
428.1059408405239
 21
317.0484741138913
 31
0.000000000000392
  0
LINE
  5
249
  8
DEFAULT
 10
428.1059408405239
 20
317.0484741138913
 30
0.000000000000392
 11
428.1411380651272
 21
317.0902592890783
 31
0.0000000000003875
  0
LINE
  5
24A
  8
DEFAULT
 10
428.1411380651272
 20
317.0902592890783
 30
0.0000000000003875
 11
428.1748881782655
 21
317.1332217767663
 31
0.0000000000003812
  0
LINE
  5
24B
  8
DEFAULT
 10
428.1748881782655
 20
317.1332217767663
 30
0.0000000000003812
 11
428.2071518288168
 21
317.1773114846163
 31
0.0000000000003732
  0
LINE
  5
24C
  8
DEFAULT
 10
428.2071518288168
 20
317.1773114846163
 30
0.0000000000003732
 11
428.2378913988076
 21
317.2224770060012
 31
0.0000000000003633
  0
LINE
  5
24D
  8
DEFAULT
 10
428.2378913988076
 20
317.2224770060012
 30
0.0000000000003633
 11
428.2670710472744
 21
317.2686656799434
 31
0.0000000000003517
  0
LINE
  5
24E
  8
DEFAULT
 10
428.2670710472744
 20
317.2686656799434
 30
0.0000000000003517
 11
428.2946567520525
 21
317.3158236525152
 31
0.0000000000003384
  0
LINE
  5
24F
  8
DEFAULT
 10
428.2946567520525
 20
317.3158236525152
 30
0.0000000000003384
 11
428.3206163494439
 21
317.3638959396303
 31
0.0000000000003233
  0
LINE
  5
250
  8
DEFAULT
 10
428.3206163494439
 20
317.3638959396303
 30
0.0000000000003233
 11
428.3449195717193
 21
317.412826491152
 31
0.0000000000003064
  0
LINE
  5
251
  8
DEFAULT
 10
428.3449195717193
 20
317.412826491152
 30
0.0000000000003064
 11
428.3675380824088
 21
317.4625582562461
 31
0.0000000000002879
  0
LINE
  5
252
  8
DEFAULT
 10
428.3675380824088
 20
317.4625582562461
 30
0.0000000000002879
 11
428.3884455093406
 21
317.5130332498992
 31
0.0000000000002677
  0
LINE
  5
253
  8
DEFAULT
 10
428.3884455093406
 20
317.5130332498992
 30
0.0000000000002677
 11
428.4076174753902
 21
317.5641926205265
 31
0.0000000000002459
  0
LINE
  5
254
  8
DEFAULT
 10
428.4076174753902
 20
317.5641926205265
 30
0.0000000000002459
 11
428.4250316269028
 21
317.6159767185904
 31
0.0000000000002224
  0
LINE
  5
255
  8
DEFAULT
 10
428.4250316269028
 20
317.6159767185904
 30
0.0000000000002224
 11
428.4406676597566
 21
317.6683251661489
 31
0.0000000000001974
  0
LINE
  5
256
  8
DEFAULT
 10
428.4406676597566
 20
317.6683251661489
 30
0.0000000000001974
 11
428.4545073430368
 21
317.7211769272538
 31
0.0000000000001707
  0
LINE
  5
257
  8
DEFAULT
 10
428.4545073430368
 20
317.7211769272538
 30
0.0000000000001707
 11
428.4665345402918
 21
317.7744703791159
 31
0.0000000000001426
  0
LINE
  5
258
  8
DEFAULT
 10
428.4665345402918
 20
317.7744703791159
 30
0.0000000000001426
 11
428.4767352283476
 21
317.8281433839542
 31
0.0000000000001129
  0
LINE
  5
259
  8
DEFAULT
 10
428.4767352283476
 20
317.8281433839542
 30
0.0000000000001129
 11
428.4850975136582
 21
317.8821333614461
 31
0.0000000000000817
  0
LINE
  5
25A
  8
DEFAULT
 10
428.4850975136582
 20
317.8821333614461
 30
0.0000000000000817
 11
428.4916116461731
 21
317.9363773616928
 31
0.0000000000000491
  0
LINE
  5
25B
  8
DEFAULT
 10
428.4916116461731
 20
317.9363773616928
 30
0.0000000000000491
 11
428.496270030705
 21
317.9908121386167
 31
0.0000000000000152
  0
LINE
  5
25C
  8
DEFAULT
 10
428.496270030705
 20
317.9908121386167
 30
0.0000000000000152
 11
428.499067235786
 21
318.0453742237025
 31
-0.0000000000000202
  0
LINE
  5
25D
  8
DEFAULT
 10
428.499067235786
 20
318.0453742237025
 30
-0.0000000000000202
 11
428.5000000000001
 21
318.1000000000001
 31
-0.0000000000000568
  0
CIRCLE
  5
25E
  8
DEFAULT
 10
483.0000000000001
 20
347.0
 30
-0.0000000000000568
 40
3.0
  0
CIRCLE
  5
25F
  8
DEFAULT
 10
483.0000000000002
 20
321.9999999999999
 30
-0.0000000000000568
 40
7.150000000000148
  0
CIRCLE
  5
260
  8
DEFAULT
 10
418.0000000000002
 20
350.9999999999999
 30
-0.0000000000000568
 40
1.800000000000011
  0
CIRCLE
  5
261
  8
DEFAULT
 10
483.0000000000001
 20
207.0
 30
-0.0000000000000568
 40
7.75
  0
CIRCLE
  5
262
  8
DEFAULT
 10
418.0000000000002
 20
310.9999999999999
 30
-0.0000000000000568
 40
1.800000000000011
  0
CIRCLE
  5
263
  8
DEFAULT
 10
46.0
 20
272.0
 30
0.0
 40
1.8
  0
CIRCLE
  5
264
  8
DEFAULT
 10
51.0
 20
272.0
 30
0.0
 40
1.8
  0
CIRCLE
  5
265
  8
DEFAULT
 10
46.0
 20
174.0
 30
0.0
 40
1.8
  0
CIRCLE
  5
266
  8
DEFAULT
 10
51.0
 20
174.0
 30
0.0
 40
1.8
  0
CIRCLE
  5
267
  8
DEFAULT
 10
51.0
 20
240.0
 30
0.0
 40
1.8
  0
CIRCLE
  5
268
  8
DEFAULT
 10
46.0
 20
142.0
 30
0.0
 40
1.8
  0
CIRCLE
  5
269
  8
DEFAULT
 10
51.0
 20
142.0
 30
0.0
 40
1.8
  0
CIRCLE
  5
26A
  8
DEFAULT
 10
22.0
 20
140.0
 30
0.0
 40
1.8
  0
CIRCLE
  5
26B
  8
DEFAULT
 10
100.0
 20
140.0
 30
0.0
 40
1.8
  0
CIRCLE
  5
26C
  8
DEFAULT
 10
100.0
 20
238.0
 30
0.0
 40
1.8
  0
CIRCLE
  5
26D
  8
DEFAULT
 10
46.0
 20
240.0
 30
0.0
 40
1.8
  0
CIRCLE
  5
26E
  8
DEFAULT
 10
22.0
 20
238.0
 30
0.0
 40
1.8
  0
CIRCLE
  5
26F
  8
DEFAULT
 10
296.8891531714017
 20
136.8629113321799
 30
0.0
 40
1.8
  0
CIRCLE
  5
270
  8
DEFAULT
 10
296.8891531714017
 20
130.8629113321799
 30
0.0
 40
1.8
  0
CIRCLE
  5
271
  8
DEFAULT
 10
338.8891531714017
 20
187.8629113321799
 30
0.0
 40
1.8
  0
CIRCLE
  5
272
  8
DEFAULT
 10
338.8891531714017
 20
193.8629113321799
 30
0.0
 40
1.8
  0
CIRCLE
  5
273
  8
DEFAULT
 10
339.0000000000001
 20
263.0
 30
0.0
 40
1.8
  0
CIRCLE
  5
274
  8
DEFAULT
 10
345.0000000000001
 20
263.0
 30
0.0
 40
1.8
  0
CIRCLE
  5
275
  8
DEFAULT
 10
210.8891531714016
 20
277.8629113321799
 30
0.0
 40
1.8
  0
CIRCLE
  5
276
  8
DEFAULT
 10
210.8891531714016
 20
271.8629113321799
 30
0.0
 40
1.8
  0
CIRCLE
  5
277
  8
DEFAULT
 10
211.0
 20
205.0
 30
0.0
 40
1.8
  0
CIRCLE
  5
278
  8
DEFAULT
 10
217.0
 20
205.0
 30
0.0
 40
1.8
  0
CIRCLE
  5
279
  8
DEFAULT
 10
211.0
 20
131.0
 30
0.0
 40
1.8
  0
CIRCLE
  5
27A
  8
DEFAULT
 10
217.0
 20
131.0
 30
0.0
 40
1.8
  0
CIRCLE
  5
27B
  8
DEFAULT
 10
44.88915317140163
 20
327.8629113321799
 30
0.0
 40
2.8
  0
CIRCLE
  5
27C
  8
DEFAULT
 10
334.8891531714017
 20
327.8629113321799
 30
0.0
 40
2.8
  0
CIRCLE
  5
27D
  8
DEFAULT
 10
381.0000000000001
 20
118.0
 30
0.0
 40
2.8
  0
CIRCLE
  5
27E
  8
DEFAULT
 10
155.0
 20
118.0
 30
0.0
 40
2.8
  0
LINE
  5
27F
  8
DEFAULT
 10
373.0000000000001
 20
172.0
 30
-0.0000000000000568
 11
391.0000000000001
 21
172.0
 31
0.0
  0
LINE
  5
280
  8
DEFAULT
 10
373.0000000000001
 20
172.0
 30
-0.0000000000000568
 11
373.0000000000001
 21
356.0
 31
-0.0000000000000568
  0
CIRCLE
  5
281
  8
DEFAULT
 10
418.0000000000001
 20
149.0
 30
-0.0000000000000568
 40
20.00000000000011
  0
CIRCLE
  5
282
  8
DEFAULT
 10
430.0000000000001
 20
158.5
 30
-0.0000000000000568
 40
1.5
  0
CIRCLE
  5
283
  8
DEFAULT
 10
406.0000000000001
 20
139.5
 30
-0.0000000000000568
 40
1.5
  0
ENDSEC
  0
EOF
